<svg width="21" height="17" viewBox="0 0 21 17" fill="none" xmlns="http://www.w3.org/2000/svg">
<path d="M2.45313 3.30529L1.85558 2.03897C1.84426 2.01577 1.83885 1.99015 1.83984 1.96434C1.84083 1.93853 1.84817 1.91331 1.86124 1.89088C1.87431 1.86845 1.89271 1.84948 1.91483 1.83563C1.93695 1.82178 1.96212 1.81347 1.98815 1.81142C2.68991 1.76394 3.38045 1.82791 4.05978 2.00335C4.07385 2.00711 4.08858 2.00772 4.10295 2.00514C4.11732 2.00255 4.13099 1.99684 4.14302 1.98838C4.15505 1.97992 4.16516 1.96892 4.17265 1.95613C4.18014 1.94335 4.18483 1.92908 4.18641 1.91431C4.22334 1.55156 4.26819 1.18486 4.32096 0.814195C4.43968 -0.0108948 6.30948 1.02987 6.64387 1.27126C6.70323 1.31479 6.75534 1.30753 6.80019 1.24949L7.59758 0.234457C7.64093 0.179398 7.70405 0.143423 7.77352 0.134185C7.84299 0.124947 7.91332 0.143176 7.96955 0.184991C8.34681 0.465957 8.65416 0.810898 8.8916 1.21982C8.90262 1.23894 8.91829 1.25495 8.93719 1.26639C8.95608 1.27783 8.9776 1.28434 8.99981 1.28532C9.02201 1.2863 9.0442 1.28173 9.06435 1.27202C9.08449 1.26231 9.10196 1.24777 9.11518 1.22971C10.5715 -0.834005 11.8318 0.665796 12.3819 2.25662C12.3858 2.26842 12.3921 2.27928 12.4005 2.28849C12.4088 2.2977 12.419 2.30506 12.4304 2.31009C12.4418 2.31513 12.4541 2.31772 12.4665 2.31771C12.4789 2.3177 12.4912 2.31509 12.5026 2.31004C13.0368 2.07854 14.2379 1.51265 14.7602 1.85891C15.3677 2.2586 15.4785 3.67728 15.5438 4.19766C15.553 4.27153 15.5952 4.30714 15.6704 4.3045C17.006 4.24119 19.3645 4.56766 19.9106 5.89137C19.9357 5.95204 19.9324 6.01074 19.9007 6.06746C19.6395 6.53838 18.6047 7.0825 18.1298 7.34764C18.1132 7.35709 18.0996 7.37108 18.0906 7.38797C18.0816 7.40486 18.0776 7.42396 18.079 7.44305C18.0805 7.46213 18.0873 7.48041 18.0988 7.49575C18.1102 7.51109 18.1258 7.52285 18.1437 7.52967C19.0908 7.88847 19.908 8.42995 20.5952 9.15413C21.3352 9.93767 19.1429 10.6618 18.6957 10.7271C18.671 10.7309 18.6479 10.7417 18.6292 10.7583C18.6106 10.775 18.5971 10.7967 18.5906 10.8209C18.5841 10.845 18.5848 10.8705 18.5926 10.8943C18.6003 10.9181 18.6149 10.939 18.6344 10.9547C19.472 11.634 19.7833 12.5145 19.5683 13.5962C19.5494 13.692 19.5009 13.7795 19.4296 13.8466C19.3583 13.9136 19.2677 13.9568 19.1706 13.9701C18.3923 14.073 17.6391 13.9761 16.911 13.6793C16.8319 13.6463 16.7883 13.672 16.7804 13.7564C16.7013 14.5162 16.7923 15.5313 16.2877 16.1407C16.2442 16.1921 16.1888 16.2178 16.1215 16.2178C15.0742 16.2007 14.1541 15.8551 13.3613 15.181C13.3485 15.1704 13.3337 15.1626 13.3177 15.1581C13.3017 15.1536 13.2851 15.1526 13.2688 15.155C13.2525 15.1574 13.2369 15.1633 13.2232 15.1722C13.2095 15.1812 13.1979 15.1929 13.1892 15.2068L12.3404 16.5325C12.2981 16.5997 12.2394 16.6202 12.1643 16.5938C10.8781 16.1387 9.83805 15.3637 9.04396 14.2689C9.00702 14.2175 8.96217 14.2089 8.9094 14.2432C7.5336 15.1204 6.08788 15.2608 4.57225 14.6646C4.46489 14.622 4.37694 14.5414 4.32514 14.4381C4.27333 14.3349 4.26128 14.2162 4.29128 14.1047L4.68898 12.6484C4.70877 12.5732 4.67975 12.5383 4.60192 12.5435C3.8817 12.589 1.57659 12.3397 1.81205 11.0971C1.92813 10.489 2.12665 9.91129 2.40762 9.36387C2.4406 9.29791 2.42477 9.24778 2.36013 9.21349C1.5667 8.78808 0.316204 8.02037 0.244974 7.11416C0.239697 7.04557 0.259484 6.98555 0.304333 6.9341C0.688188 6.48561 1.15647 6.16244 1.70916 5.96457C1.80546 5.92896 1.81271 5.88147 1.73093 5.82211C1.16504 5.41188 0.715891 4.90007 0.38348 4.2867C0.353464 4.23201 0.346188 4.16776 0.363252 4.10803C0.380317 4.0483 0.420326 3.99799 0.474496 3.96814C1.07336 3.63441 1.71774 3.43984 2.40762 3.38444C2.41658 3.38372 2.42522 3.38082 2.43281 3.37601C2.4404 3.3712 2.44671 3.36462 2.45119 3.35683C2.45567 3.34904 2.45818 3.34028 2.45852 3.3313C2.45886 3.32232 2.45701 3.3134 2.45313 3.30529ZM14.8611 9.96537L15.2885 9.69825C15.3532 9.65868 15.3637 9.6079 15.3202 9.5459L14.9462 9.01562C14.9053 8.9589 14.9073 8.90285 14.9521 8.84744L15.2054 8.5368C15.2595 8.47084 15.2549 8.41016 15.1916 8.35476L14.6375 7.87198C14.594 7.8324 14.5756 7.7836 14.5821 7.72556L14.6474 7.20914C14.658 7.12867 14.6237 7.08052 14.5446 7.06469C14.0064 6.94861 13.7083 6.62742 13.6502 6.1011C13.6397 6.00349 13.5849 5.95072 13.486 5.94281C12.9227 5.90192 12.5283 5.63151 12.3028 5.13157C12.2671 5.05243 12.2065 5.01747 12.1207 5.0267C11.5522 5.09398 11.0978 4.90799 10.7575 4.46873C10.7139 4.41201 10.6565 4.39024 10.5853 4.40343L9.82551 4.5459C9.74637 4.56041 9.6791 4.53798 9.62369 4.47862C9.25831 4.08026 8.88369 4.05915 8.49983 4.41531C8.45234 4.46015 8.39694 4.47203 8.33363 4.45092L7.58174 4.21151C7.49205 4.18249 7.43005 4.21283 7.39575 4.30252C7.23218 4.73914 6.91165 4.85126 6.43414 4.63889C6.33521 4.59404 6.27453 4.62504 6.2521 4.73189L6.1413 5.25622C6.12943 5.30767 6.09843 5.33933 6.0483 5.3512L5.47055 5.48575C5.38744 5.50421 5.35908 5.55368 5.38546 5.63414L5.53782 6.07934C5.56552 6.16244 5.54177 6.22576 5.46658 6.26929L5.05503 6.5087C4.98776 6.54827 4.97588 6.60038 5.01941 6.66501L5.37557 7.20518C5.41382 7.26322 5.41118 7.31928 5.36765 7.37336L5.08075 7.71962C5.01216 7.8014 5.02733 7.86208 5.12626 7.90166C5.60509 8.09556 5.79306 8.43721 5.69017 8.92659C5.67434 9.00178 5.69941 9.0585 5.76536 9.09675L6.44601 9.49643C6.51328 9.53469 6.55615 9.59207 6.57462 9.66857L6.69136 10.1494C6.71115 10.2312 6.76325 10.2747 6.84767 10.28C7.40697 10.3143 7.79939 10.5787 8.02496 11.0734C8.06057 11.1499 8.12059 11.1895 8.20501 11.1921L8.86192 11.208C8.93051 11.2093 8.99053 11.2317 9.04198 11.2752L9.62369 11.7758C9.68437 11.8273 9.75297 11.8418 9.82947 11.8193L10.3439 11.6709C10.4085 11.6525 10.4699 11.6597 10.5279 11.6927L11.2343 12.0805C11.3121 12.1227 11.384 12.1148 11.45 12.0568C11.822 11.7283 12.2236 11.7151 12.655 12.0172C12.7301 12.07 12.7954 12.0594 12.8508 11.9856L13.1536 11.576C13.1892 11.5259 13.238 11.5008 13.3 11.5008L14.0044 11.4968C14.0928 11.4968 14.1356 11.4526 14.133 11.3643C14.1159 10.9052 14.3493 10.7166 14.8334 10.7984C14.9442 10.8168 14.9838 10.772 14.9521 10.6638L14.7958 10.1415C14.7721 10.0663 14.7939 10.0076 14.8611 9.96537Z" fill="#FFD300"/>
</svg>
