<svg width="18" height="15" viewBox="0 0 18 15" fill="none" xmlns="http://www.w3.org/2000/svg">
<path d="M10.3691 8.02702C12.4091 5.97716 14.9991 4.77811 17.512 6.96648C17.9473 7.34637 17.7771 7.62338 17.3497 7.87862C16.4692 8.4089 16.4593 9.1212 15.8717 9.7326C14.2492 11.4184 11.8194 10.3499 10.003 11.7983C9.94764 11.8418 9.9239 11.8985 9.93181 11.9685C10.0123 12.723 10.2161 13.4419 10.5432 14.1252C10.5572 14.1537 10.5627 14.1856 10.5591 14.2172C10.5555 14.2488 10.5429 14.2787 10.5228 14.3035C10.5028 14.3284 10.476 14.3471 10.4456 14.3576C10.4153 14.368 10.3826 14.3698 10.3513 14.3626C8.27174 13.8778 8.31923 11.2304 8.58239 9.46549C8.59426 9.38898 8.57184 9.32435 8.51512 9.27158C6.48306 7.39782 3.32318 9.22806 2.05488 5.96529C1.76006 5.2055 0.319618 4.75635 1.0062 4.00645C2.36552 2.52247 4.17993 2.2692 5.92508 3.2783C7.17756 4.00446 8.60613 5.24902 9.06715 6.69343C9.07176 6.70955 9.08149 6.72373 9.09488 6.73383C9.10827 6.74393 9.12458 6.74939 9.14135 6.74939C9.15812 6.74939 9.17443 6.74393 9.18782 6.73383C9.20121 6.72373 9.21094 6.70955 9.21555 6.69343C9.83486 4.78405 10.5373 2.87664 10.7866 0.884157C10.7945 0.815565 10.8328 0.779292 10.9013 0.775335C11.9322 0.698168 10.4245 7.24546 10.2504 7.95975C10.247 7.97468 10.2485 7.99032 10.2547 8.00434C10.2608 8.01835 10.2714 8.03 10.2847 8.03755C10.298 8.0451 10.3134 8.04816 10.3286 8.04626C10.3438 8.04436 10.358 8.03762 10.3691 8.02702ZM2.23889 4.40613C4.49453 4.67522 6.3683 5.52603 7.98286 7.11289C7.99441 7.12654 8.0109 7.13504 8.02871 7.13652C8.04652 7.13801 8.06419 7.13236 8.07783 7.12081C8.09148 7.10927 8.09998 7.09277 8.10146 7.07496C8.10295 7.05715 8.0973 7.03948 8.08575 7.02583C6.81943 5.16592 5.05317 4.23926 2.78697 4.24586C2.59966 4.24586 2.41433 4.27488 2.23098 4.33292C2.12281 4.36721 2.12545 4.39162 2.23889 4.40613ZM10.3988 9.77811C12.0826 8.3436 14.1859 7.59964 16.3584 7.35627C16.4204 7.34967 16.4422 7.3167 16.4237 7.25734C16.4132 7.2204 16.3848 7.20061 16.3386 7.19797C13.9385 7.06541 11.77 7.64317 10.3533 9.73656C10.3498 9.74279 10.3485 9.75001 10.3497 9.75705C10.3508 9.76409 10.3543 9.77054 10.3596 9.77535C10.3648 9.78016 10.3716 9.78304 10.3787 9.78355C10.3858 9.78405 10.3929 9.78213 10.3988 9.77811Z" fill="#00AD36"/>
</svg>
