<svg width="127" height="24" viewBox="0 0 127 24" fill="none" xmlns="http://www.w3.org/2000/svg">
<path d="M3.83117 7.57556C3.81612 9.40412 3.81289 11.2343 3.80967 13.0629C3.80895 13.4609 3.78529 13.7665 3.7387 13.9798C3.46235 15.2356 2.54515 16.2089 1.32311 16.5992C1.09909 16.6708 0.739236 16.7338 0.243537 16.7882C0.227767 16.79 0.219882 16.7828 0.219882 16.7667C0.221674 13.8247 0.221137 10.8826 0.218269 7.94063C0.217911 7.4757 0.230276 7.11833 0.255365 6.86851C0.589236 3.57323 3.08601 0.925413 6.39623 0.491089C6.66002 0.456372 7.01737 0.439013 7.46827 0.439013C12.8697 0.438655 18.2711 0.438477 23.6726 0.438477C23.6919 0.438477 23.7016 0.44814 23.7016 0.467467V4.00648C23.7016 4.02617 23.6917 4.03601 23.672 4.03601C18.2104 4.03494 12.75 4.03494 7.29085 4.03601C5.35429 4.03601 3.84676 5.6509 3.83117 7.57556Z" fill="#E20C15"/>
<path d="M44.2127 10.7034L40.1659 15.5298C40.1534 15.5448 40.141 15.5448 40.1288 15.5298L36.0869 10.7098C36.0844 10.7068 36.081 10.7046 36.0773 10.7036C36.0735 10.7026 36.0695 10.7028 36.0658 10.7041C36.0622 10.7055 36.059 10.708 36.0568 10.7112C36.0546 10.7144 36.0535 10.7183 36.0536 10.7222V19.873C36.0536 19.8909 36.0446 19.8999 36.0267 19.8999H31.981C31.9631 19.8999 31.9541 19.8909 31.9541 19.873V4.38446C31.9541 4.36621 31.9631 4.35708 31.981 4.35708L35.9767 4.35762C35.9957 4.35762 36.0109 4.36514 36.0224 4.38017L40.1342 9.67956C40.1358 9.68157 40.1378 9.68319 40.14 9.68431C40.1423 9.68543 40.1448 9.68601 40.1474 9.68601C40.1499 9.68601 40.1524 9.68543 40.1547 9.68431C40.157 9.68319 40.159 9.68157 40.1606 9.67956C41.5312 7.9122 42.9039 6.14252 44.2788 4.3705C44.3073 4.33453 47.9401 4.35816 48.3122 4.35869C48.3297 4.35869 48.3385 4.36746 48.3385 4.385V19.873C48.3385 19.8909 48.3295 19.8999 48.3116 19.8999H44.2659C44.248 19.8999 44.239 19.8909 44.239 19.873V10.713C44.239 10.71 44.238 10.7071 44.2363 10.7046C44.2345 10.7021 44.232 10.7002 44.2292 10.6992C44.2263 10.6981 44.2232 10.698 44.2203 10.6987C44.2174 10.6995 44.2147 10.7011 44.2127 10.7034Z" fill="#E20C15"/>
<path d="M71.8873 7.9858V19.8822C71.8873 19.8845 71.8868 19.8868 71.8859 19.889C71.885 19.8911 71.8837 19.8931 71.8821 19.8947C71.8804 19.8964 71.8785 19.8977 71.8763 19.8986C71.8742 19.8994 71.8719 19.8999 71.8696 19.8999H67.819C67.8167 19.8999 67.8144 19.8994 67.8122 19.8986C67.8101 19.8977 67.8081 19.8964 67.8065 19.8947C67.8048 19.8931 67.8035 19.8911 67.8026 19.889C67.8017 19.8868 67.8013 19.8845 67.8013 19.8822V4.37538C67.8013 4.37068 67.8031 4.36618 67.8065 4.36285C67.8098 4.35953 67.8143 4.35767 67.819 4.35767H77.6088C77.6135 4.35767 77.618 4.35953 77.6213 4.36285C77.6247 4.36618 77.6265 4.37068 77.6265 4.37538V7.95198C77.6265 7.95668 77.6247 7.96118 77.6213 7.9645C77.618 7.96783 77.6135 7.96969 77.6088 7.96969L71.905 7.96808C71.9003 7.96808 71.8958 7.96995 71.8925 7.97327C71.8892 7.97659 71.8873 7.9811 71.8873 7.9858Z" fill="#E20C15"/>
<path d="M89.9704 13.8199H83.9225C83.9174 13.8199 83.9125 13.8219 83.9088 13.8256C83.9052 13.8292 83.9032 13.8341 83.9032 13.8392V19.8806C83.9032 19.8857 83.9011 19.8906 83.8975 19.8942C83.8939 19.8979 83.889 19.8999 83.8838 19.8999H79.8231C79.8179 19.8999 79.813 19.8979 79.8094 19.8942C79.8058 19.8906 79.8037 19.8857 79.8037 19.8806V4.37699C79.8037 4.37187 79.8058 4.36695 79.8094 4.36333C79.813 4.3597 79.8179 4.35767 79.8231 4.35767H83.8838C83.889 4.35767 83.8939 4.3597 83.8975 4.36333C83.9011 4.36695 83.9032 4.37187 83.9032 4.37699V10.1435C83.9032 10.1486 83.9052 10.1535 83.9088 10.1571C83.9125 10.1608 83.9174 10.1628 83.9225 10.1628L89.9628 10.1655C89.968 10.1655 89.9729 10.1634 89.9765 10.1598C89.9802 10.1562 89.9822 10.1513 89.9822 10.1461L89.9951 4.37699C89.9951 4.37187 89.9971 4.36695 90.0008 4.36333C90.0044 4.3597 90.0093 4.35767 90.0145 4.35767H94.072C94.0771 4.35767 94.082 4.3597 94.0857 4.36333C94.0893 4.36695 94.0913 4.37187 94.0913 4.37699V19.8806C94.0913 19.8857 94.0893 19.8906 94.0857 19.8942C94.082 19.8979 94.0771 19.8999 94.072 19.8999H90.0118C90.0066 19.8999 90.0017 19.8979 89.9981 19.8942C89.9945 19.8906 89.9924 19.8857 89.9924 19.8806L89.9897 13.8392C89.9897 13.8341 89.9877 13.8292 89.9841 13.8256C89.9804 13.8219 89.9755 13.8199 89.9704 13.8199Z" fill="#E20C15"/>
<path d="M100.532 19.8999H97.1198C97.1175 19.8999 97.1152 19.8994 97.113 19.8986C97.1109 19.8977 97.1089 19.8964 97.1072 19.8947C97.1056 19.8931 97.1043 19.8911 97.1034 19.889C97.1025 19.8868 97.1021 19.8845 97.1021 19.8822V4.37538C97.1021 4.37068 97.1039 4.36618 97.1072 4.36285C97.1106 4.35953 97.1151 4.35767 97.1198 4.35767H101.184C101.188 4.35767 101.193 4.35953 101.196 4.36285C101.2 4.36618 101.202 4.37068 101.202 4.37538V13.0683C101.202 13.0721 101.203 13.0757 101.205 13.0788C101.207 13.0818 101.21 13.0841 101.214 13.0852C101.217 13.0863 101.221 13.0863 101.225 13.0851C101.229 13.0839 101.232 13.0816 101.234 13.0785L107.608 4.36518C107.61 4.36286 107.612 4.36096 107.615 4.35966C107.617 4.35835 107.62 4.35766 107.623 4.35767H111.143C111.148 4.35767 111.153 4.35953 111.156 4.36285C111.159 4.36618 111.161 4.37068 111.161 4.37538V19.8822C111.161 19.8845 111.161 19.8868 111.16 19.889C111.159 19.8911 111.158 19.8931 111.156 19.8947C111.154 19.8964 111.152 19.8977 111.15 19.8986C111.148 19.8994 111.146 19.8999 111.143 19.8999H107.066C107.064 19.8999 107.061 19.8994 107.059 19.8986C107.057 19.8977 107.055 19.8964 107.053 19.8947C107.052 19.8931 107.051 19.8911 107.05 19.889C107.049 19.8868 107.048 19.8845 107.048 19.8822V11.1173C107.048 11.1135 107.047 11.1098 107.045 11.1066C107.043 11.1035 107.04 11.1012 107.036 11.1C107.033 11.0988 107.029 11.0988 107.025 11.0999C107.021 11.1011 107.018 11.1035 107.016 11.1066L100.546 19.8929C100.544 19.8952 100.542 19.8969 100.54 19.8982C100.537 19.8994 100.534 19.9 100.532 19.8999Z" fill="#E20C15"/>
<path d="M113.083 7.94768V4.37753C113.083 4.37226 113.086 4.36721 113.089 4.36348C113.093 4.35976 113.098 4.35767 113.103 4.35767H126.773C126.779 4.35767 126.784 4.35976 126.787 4.36348C126.791 4.36721 126.793 4.37226 126.793 4.37753V7.94661C126.793 7.95188 126.791 7.95693 126.787 7.96065C126.784 7.96438 126.779 7.96647 126.773 7.96647L122.001 7.97399C121.999 7.97399 121.996 7.9745 121.994 7.9755C121.991 7.9765 121.989 7.97796 121.987 7.97981C121.985 7.98165 121.984 7.98384 121.983 7.98625C121.982 7.98866 121.981 7.99124 121.981 7.99385V19.88C121.981 19.8853 121.979 19.8904 121.976 19.8941C121.972 19.8978 121.967 19.8999 121.961 19.8999H117.888C117.883 19.8999 117.878 19.8978 117.874 19.8941C117.871 19.8904 117.868 19.8853 117.868 19.88V7.98848C117.868 7.98322 117.866 7.97816 117.863 7.97444C117.859 7.97071 117.854 7.96862 117.849 7.96862L113.103 7.96755C113.098 7.96755 113.093 7.96545 113.089 7.96173C113.086 7.958 113.083 7.95295 113.083 7.94768Z" fill="#E20C15"/>
<path d="M53.9764 19.8994L49.8802 19.901C49.8773 19.901 49.8744 19.9003 49.8719 19.899C49.8693 19.8976 49.8671 19.8957 49.8654 19.8933C49.8638 19.8909 49.8628 19.8882 49.8624 19.8853C49.8621 19.8824 49.8625 19.8795 49.8635 19.8768L56.1533 4.36894C56.1546 4.36568 56.1568 4.36287 56.1597 4.36086C56.1625 4.35886 56.1659 4.35774 56.1694 4.35767H59.9442C59.9477 4.35774 59.9511 4.35886 59.9539 4.36086C59.9568 4.36287 59.959 4.36568 59.9603 4.36894L66.2485 19.8757C66.2495 19.8784 66.2499 19.8814 66.2496 19.8842C66.2492 19.8871 66.2482 19.8899 66.2465 19.8922C66.2449 19.8946 66.2427 19.8966 66.2401 19.8979C66.2376 19.8992 66.2347 19.8999 66.2318 19.8999H62.0727C62.0691 19.8999 62.0655 19.8989 62.0626 19.8969C62.0596 19.8948 62.0573 19.892 62.056 19.8886L61.213 17.7369C61.2117 17.7335 61.2094 17.7307 61.2064 17.7287C61.2034 17.7266 61.1999 17.7256 61.1963 17.7256H54.8501C54.8465 17.7256 54.843 17.7266 54.84 17.7287C54.837 17.7307 54.8347 17.7335 54.8334 17.7369L53.9931 19.8881C53.9918 19.8914 53.9895 19.8943 53.9865 19.8963C53.9835 19.8983 53.98 19.8994 53.9764 19.8994ZM56.1399 14.4072C56.1387 14.41 56.1383 14.413 56.1386 14.416C56.1388 14.4189 56.1399 14.4218 56.1415 14.4243C56.1431 14.4268 56.1454 14.4288 56.148 14.4302C56.1506 14.4317 56.1535 14.4324 56.1565 14.4325H59.8985C59.9015 14.4324 59.9044 14.4317 59.907 14.4302C59.9096 14.4288 59.9119 14.4268 59.9135 14.4243C59.9151 14.4218 59.9162 14.4189 59.9164 14.416C59.9167 14.413 59.9163 14.41 59.9151 14.4072L58.0447 9.6125C58.0434 9.60896 58.0411 9.6059 58.038 9.60374C58.0349 9.60158 58.0313 9.60041 58.0275 9.60041C58.0237 9.60041 58.0201 9.60158 58.017 9.60374C58.0139 9.6059 58.0116 9.60896 58.0103 9.6125L56.1399 14.4072Z" fill="#E20C15"/>
<path d="M20.0858 16.3701C20.0851 14.6253 20.0858 12.8804 20.088 11.1356C20.0901 9.44022 21.11 8.06477 22.7724 7.61595C22.9397 7.57085 23.2403 7.52414 23.674 7.47583C23.6923 7.47404 23.7014 7.48227 23.7014 7.50052C23.7014 10.4443 23.7016 13.3876 23.7019 16.3303C23.7019 16.8049 23.6901 17.1621 23.6664 17.4019C23.3347 20.7885 20.682 23.4588 17.2858 23.796C17.0467 23.8196 16.6887 23.8314 16.2116 23.8314C10.8901 23.8332 5.56878 23.8334 0.247634 23.832C0.229354 23.832 0.220215 23.8228 0.220215 23.8046V20.2484C0.220215 20.2414 0.222991 20.2347 0.227931 20.2298C0.232872 20.2248 0.239572 20.2221 0.246559 20.2221C5.57595 20.2221 10.9078 20.2221 16.2423 20.2221C16.719 20.2221 17.0754 20.1974 17.3116 20.148C18.653 19.8667 19.7396 18.787 20.0159 17.439C20.0625 17.2113 20.0858 16.855 20.0858 16.3701Z" fill="#E20C15"/>
<path d="M11.9457 14.6929L9.86398 12.2088C9.86153 12.2058 9.85821 12.2037 9.85449 12.2027C9.85076 12.2016 9.84681 12.2018 9.84317 12.2031C9.83953 12.2043 9.83638 12.2067 9.83414 12.2099C9.8319 12.213 9.83068 12.2168 9.83065 12.2206V16.7942C9.83065 16.7966 9.83016 16.7991 9.82922 16.8014C9.82827 16.8036 9.82689 16.8057 9.82514 16.8075C9.82339 16.8092 9.82132 16.8106 9.81903 16.8115C9.81675 16.8125 9.8143 16.813 9.81183 16.813H7.01345C7.01098 16.813 7.00853 16.8125 7.00625 16.8115C7.00396 16.8106 7.00189 16.8092 7.00014 16.8075C6.99839 16.8057 6.99701 16.8036 6.99606 16.8014C6.99512 16.7991 6.99463 16.7966 6.99463 16.7942V7.66479C6.99463 7.66232 6.99512 7.65988 6.99606 7.6576C6.99701 7.65532 6.99839 7.65324 7.00014 7.6515C7.00189 7.64975 7.00396 7.64837 7.00625 7.64743C7.00853 7.64648 7.01098 7.646 7.01345 7.646H9.66936C9.67228 7.646 9.67516 7.64668 9.67778 7.64798C9.68039 7.64928 9.68266 7.65118 9.68441 7.65351L11.9441 10.5692C11.9458 10.5716 11.9481 10.5735 11.9507 10.5748C11.9533 10.5761 11.9562 10.5767 11.9591 10.5767C11.9621 10.5767 11.9649 10.5761 11.9676 10.5748C11.9702 10.5735 11.9724 10.5716 11.9742 10.5692L14.236 7.65351C14.2378 7.65118 14.2401 7.64928 14.2427 7.64798C14.2453 7.64668 14.2482 7.646 14.2511 7.646H16.9086C16.9111 7.646 16.9135 7.64648 16.9158 7.64743C16.9181 7.64837 16.9202 7.64975 16.9219 7.6515C16.9237 7.65324 16.925 7.65532 16.926 7.6576C16.9269 7.65988 16.9274 7.66232 16.9274 7.66479V16.7942C16.9274 16.7992 16.9254 16.8039 16.9219 16.8075C16.9184 16.811 16.9136 16.813 16.9086 16.813H14.1102C14.1052 16.813 14.1004 16.811 14.0969 16.8075C14.0934 16.8039 14.0914 16.7992 14.0914 16.7942V12.2179C14.0914 12.2141 14.0902 12.2103 14.0879 12.2072C14.0857 12.204 14.0825 12.2017 14.0789 12.2004C14.0752 12.1991 14.0713 12.1989 14.0676 12.2C14.0638 12.201 14.0605 12.2032 14.0581 12.2061L11.9747 14.6929C11.973 14.695 11.9708 14.6967 11.9682 14.6979C11.9657 14.6991 11.963 14.6997 11.9602 14.6997C11.9574 14.6997 11.9547 14.6991 11.9522 14.6979C11.9497 14.6967 11.9475 14.695 11.9457 14.6929Z" fill="#E20C15"/>
</svg>
