<svg width="125" height="29" viewBox="0 0 125 29" fill="none" xmlns="http://www.w3.org/2000/svg">
<path d="M7.22022 15.5656H1.46681C1.4559 15.5656 1.44511 15.5635 1.43504 15.5593C1.42497 15.5552 1.41581 15.549 1.4081 15.5413C1.4004 15.5336 1.39428 15.5245 1.39011 15.5144C1.38594 15.5043 1.38379 15.4935 1.38379 15.4826C1.39565 11.563 3.03969 7.91246 5.88082 5.25145C11.8885 -0.375951 21.5066 0.354158 26.5974 6.81841C30.4696 11.7357 30.9973 19.125 26.143 23.6888C21.6816 27.8826 14.571 27.7714 10.3326 23.2529C8.3496 21.1389 7.32078 18.5852 7.24616 15.5916C7.24616 15.5847 7.24343 15.5781 7.23856 15.5732C7.2337 15.5684 7.2271 15.5656 7.22022 15.5656ZM23.7415 15.5679C23.7415 14.8734 23.6047 14.1856 23.3389 13.544C23.0731 12.9023 22.6835 12.3193 22.1924 11.8282C21.7013 11.3371 21.1183 10.9476 20.4767 10.6818C19.835 10.416 19.1473 10.2792 18.4528 10.2792C17.0502 10.2792 15.705 10.8364 14.7131 11.8282C13.7213 12.82 13.1641 14.1652 13.1641 15.5679C13.1641 16.9705 13.7213 18.3157 14.7131 19.3075C15.705 20.2993 17.0502 20.8565 18.4528 20.8565C19.1473 20.8565 19.835 20.7197 20.4767 20.454C21.1183 20.1882 21.7013 19.7986 22.1924 19.3075C22.6835 18.8164 23.0731 18.2334 23.3389 17.5918C23.6047 16.9501 23.7415 16.2624 23.7415 15.5679Z" fill="#FF486F"/>
<path d="M40.4956 18.1296C37.7819 18.8627 37.8605 23.3938 40.6646 23.9579C42.0225 24.2314 43.1832 23.6295 43.7347 22.3665C43.742 22.3495 43.7541 22.3351 43.7697 22.3249C43.7852 22.3148 43.8035 22.3094 43.8222 22.3094L46.7893 22.3116C46.8442 22.3116 46.8652 22.3383 46.8523 22.3917C45.4521 28.274 36.8761 28.1651 35.6264 22.2834C34.7918 18.3505 37.7938 15.0342 41.7734 15.3285C44.3603 15.5197 46.1452 17.126 46.8523 19.6076C46.8731 19.6793 46.8462 19.7153 46.7715 19.7158L43.7659 19.7166C43.7534 19.7166 43.7412 19.7128 43.7309 19.7058C43.7206 19.6988 43.7126 19.6889 43.708 19.6773C43.1951 18.3668 41.8401 17.7664 40.4956 18.1296Z" fill="#FF486F"/>
<path d="M108.405 25.3713C107.149 26.6551 105.635 27.0426 103.863 26.5336C103.401 26.4007 102.957 26.184 102.53 25.8835C100.436 24.41 99.6574 21.6029 100.388 19.2036C101.093 16.8887 103.121 15.1402 105.624 15.3292C106.726 15.4127 107.645 15.8611 108.383 16.6745C108.388 16.6794 108.394 16.6829 108.401 16.6844C108.407 16.6859 108.414 16.6855 108.42 16.6831C108.427 16.6807 108.432 16.6765 108.436 16.671C108.44 16.6655 108.442 16.659 108.442 16.6523V15.642C108.442 15.6217 108.45 15.6023 108.464 15.588C108.478 15.5737 108.498 15.5656 108.518 15.5656H111.37C111.379 15.5656 111.389 15.5695 111.396 15.5765C111.403 15.5834 111.407 15.5929 111.407 15.6027V26.4987C111.407 26.5086 111.403 26.518 111.396 26.525C111.389 26.5319 111.379 26.5358 111.37 26.5358H108.497C108.483 26.5358 108.468 26.53 108.458 26.5195C108.448 26.5091 108.442 26.495 108.442 26.4802V25.3854C108.442 25.3813 108.441 25.3773 108.438 25.3739C108.436 25.3706 108.433 25.368 108.429 25.3665C108.425 25.365 108.421 25.3646 108.416 25.3655C108.412 25.3664 108.408 25.3684 108.405 25.3713ZM104.827 18.2607C102.604 19.1724 102.575 22.826 104.785 23.7725C105.65 24.1431 106.707 24.0631 107.487 23.5383C108.848 22.6221 108.99 20.4444 108.124 19.1687C107.428 18.1429 105.983 17.7871 104.827 18.2607Z" fill="#FF486F"/>
<path d="M56.4816 16.6383V15.6214C56.4816 15.5843 56.5002 15.5658 56.5372 15.5658H59.4747C59.5054 15.5658 59.5207 15.5813 59.5207 15.6125L59.5199 26.3884C59.5199 26.4239 59.5061 26.458 59.4815 26.4833C59.4568 26.5087 59.4233 26.5233 59.388 26.5241C58.497 26.5409 57.5883 26.5448 56.6618 26.5359C56.5456 26.535 56.4866 26.4781 56.4846 26.3655C56.4792 26.0448 56.4789 25.7231 56.4839 25.4004C56.4838 25.3931 56.4814 25.386 56.477 25.3801C56.4726 25.3742 56.4665 25.3699 56.4596 25.3677C56.4526 25.3655 56.4451 25.3655 56.4382 25.3678C56.4312 25.3701 56.4252 25.3745 56.4209 25.3804C56.349 25.4819 56.28 25.5864 56.1844 25.6687C53.6568 27.8679 49.987 26.4841 48.7499 23.6133C47.7381 21.2651 48.1028 18.521 49.9707 16.708C51.7585 14.9728 54.6649 14.7349 56.4335 16.6569C56.4656 16.6919 56.4816 16.6858 56.4816 16.6383ZM53.9296 18.06C50.1152 18.186 50.4169 24.3619 54.2965 23.9876C57.7454 23.6548 57.4927 17.9421 53.9296 18.06Z" fill="#FF486F"/>
<path d="M80.0517 26.5212C77.281 25.7503 75.5687 23.0493 75.9505 20.2296C76.5538 15.7756 81.9433 13.7787 85.3737 16.6384C86.405 17.4987 87.0513 18.5663 87.3127 19.8412C88.197 24.15 84.2544 27.6908 80.0517 26.5212ZM80.1866 23.5029C81.6587 24.4568 83.7526 23.7542 84.2404 22.0338C84.628 20.6692 84.2166 19.0926 82.895 18.4099C81.7995 17.8443 80.4379 18.1104 79.6329 19.0496C78.5359 20.3289 78.7308 22.5593 80.1866 23.5029Z" fill="#FF486F"/>
<path d="M64.7959 20.2376C64.7875 20.2386 64.7833 20.2433 64.7833 20.2517V26.4988C64.7833 26.5086 64.7794 26.518 64.7724 26.525C64.7655 26.5319 64.756 26.5359 64.7462 26.5359H61.8554C61.8456 26.5359 61.8362 26.5319 61.8292 26.525C61.8223 26.518 61.8184 26.5086 61.8184 26.4988V15.6027C61.8184 15.5929 61.8223 15.5835 61.8292 15.5765C61.8362 15.5696 61.8456 15.5657 61.8554 15.5657H64.3185C64.3442 15.5657 64.365 15.5758 64.3808 15.5961L67.9105 20.0716C67.9224 20.0869 67.9345 20.0869 67.9468 20.0716C69.1096 18.6055 70.2735 17.1415 71.4388 15.6798C71.4625 15.6502 71.4973 15.6188 71.5433 15.5857C71.5616 15.5723 71.5821 15.5657 71.6048 15.5657H74.0672C74.1042 15.5657 74.1227 15.5842 74.1227 15.6213V26.3883C74.1228 26.4271 74.1074 26.4644 74.08 26.4919C74.0527 26.5194 74.0155 26.5349 73.9767 26.5351C73.0838 26.5376 72.1812 26.5371 71.269 26.5336C71.1504 26.5331 71.0909 26.4768 71.0904 26.3646C71.085 24.3524 71.0812 22.3403 71.0793 20.3281C71.0793 20.3068 71.0758 20.2903 71.0689 20.2784C71.0662 20.2737 71.0624 20.2697 71.0578 20.2668C71.0533 20.2639 71.048 20.2622 71.0426 20.2617C71.0372 20.2613 71.0318 20.2622 71.0268 20.2643C71.0218 20.2664 71.0175 20.2697 71.014 20.274L68.0032 24.0854C67.9975 24.0924 67.9904 24.0982 67.9822 24.1021C67.9741 24.1061 67.9652 24.1081 67.9561 24.1081C67.947 24.1081 67.9381 24.1061 67.93 24.1021C67.9218 24.0982 67.9147 24.0924 67.909 24.0854C67.6266 23.7325 64.85 20.2287 64.7959 20.2376Z" fill="#FF486F"/>
<path d="M92.4133 19.9196C92.5349 19.7956 92.6574 19.6592 92.781 19.5105C93.8222 18.2544 94.8661 17.0002 95.9127 15.748C95.9374 15.7179 95.9712 15.6667 96.0142 15.5946C96.0256 15.5753 96.0424 15.5657 96.0646 15.5657H99.5795C99.5854 15.5657 99.5912 15.5674 99.5962 15.5706C99.6012 15.5738 99.6052 15.5783 99.6076 15.5837C99.6101 15.5891 99.611 15.595 99.6103 15.6009C99.6095 15.6068 99.6071 15.6123 99.6033 15.6168L95.147 20.8855C95.1163 20.9215 95.1173 20.9566 95.15 20.9907L100.377 26.4691C100.382 26.4747 100.386 26.4816 100.387 26.4891C100.388 26.4966 100.387 26.5043 100.384 26.5113C100.381 26.5182 100.376 26.5242 100.37 26.5284C100.364 26.5327 100.357 26.535 100.349 26.5351C99.1679 26.5361 97.9864 26.5366 96.8044 26.5366C96.6339 26.5366 96.5242 26.504 96.4011 26.3728C95.0818 24.9644 93.7564 23.5583 92.4252 22.1545C92.4198 22.1486 92.4127 22.1445 92.4049 22.1427C92.3972 22.141 92.389 22.1416 92.3816 22.1446C92.3742 22.1476 92.3679 22.1527 92.3635 22.1594C92.3591 22.1661 92.3568 22.1739 92.357 22.1819V26.4988C92.357 26.5086 92.3531 26.518 92.3461 26.525C92.3392 26.5319 92.3298 26.5359 92.3199 26.5359H89.4292C89.4193 26.5359 89.4099 26.5319 89.4029 26.525C89.396 26.518 89.3921 26.5086 89.3921 26.4988V15.6027C89.3921 15.5929 89.396 15.5835 89.4029 15.5765C89.4099 15.5696 89.4193 15.5657 89.4292 15.5657H92.3199C92.3298 15.5657 92.3392 15.5696 92.3461 15.5765C92.3531 15.5835 92.357 15.5929 92.357 15.6027V19.8967C92.3569 19.9033 92.3588 19.9097 92.3624 19.9152C92.366 19.9207 92.3712 19.925 92.3773 19.9275C92.3834 19.93 92.3901 19.9305 92.3965 19.9291C92.403 19.9277 92.4088 19.9244 92.4133 19.9196Z" fill="#FF486F"/>
<path d="M119.338 18.2022C119.338 20.929 119.338 23.6559 119.337 26.3832C119.337 26.4874 119.282 26.5373 119.17 26.5329C118.558 26.5092 117.663 26.5344 116.489 26.5314C116.361 26.5314 116.297 26.4711 116.297 26.3505C116.298 23.6653 116.299 20.9799 116.3 18.2941C116.3 18.2765 116.296 18.2591 116.289 18.2428C116.283 18.2265 116.273 18.2117 116.26 18.1993C116.248 18.1868 116.233 18.1769 116.217 18.1702C116.2 18.1634 116.183 18.16 116.165 18.16H113.29C113.282 18.16 113.274 18.1568 113.269 18.1511C113.263 18.1454 113.26 18.1376 113.26 18.1296V15.6116C113.26 15.581 113.275 15.5657 113.306 15.5657H122.488C122.498 15.5657 122.507 15.5696 122.514 15.5765C122.521 15.5835 122.525 15.5929 122.525 15.6027V17.9858C122.525 18.011 122.532 18.034 122.547 18.0547L122.587 18.1148C122.608 18.1449 122.6 18.16 122.564 18.16H119.379C119.352 18.16 119.338 18.1741 119.338 18.2022Z" fill="#FF486F"/>
</svg>
