<svg width="35" height="31" viewBox="0 0 35 31" fill="none" xmlns="http://www.w3.org/2000/svg">
<path d="M7.70567 17.3219H0.726678C0.713454 17.3219 0.700359 17.3193 0.688141 17.3143C0.675924 17.3092 0.664823 17.3018 0.655471 17.2924C0.64612 17.2831 0.638703 17.272 0.633642 17.2598C0.628581 17.2475 0.625977 17.2344 0.625977 17.2212C0.640363 12.4667 2.63462 8.03848 6.08096 4.81063C13.3683 -2.01552 25.0354 -1.12988 31.2105 6.71137C35.9076 12.6762 36.5477 21.6395 30.6594 27.1754C25.2476 32.2626 16.6223 32.1278 11.4811 26.6467C9.07563 24.0824 7.82765 20.9846 7.73714 17.3534C7.73714 17.345 7.73382 17.337 7.72792 17.3311C7.72202 17.3252 7.71402 17.3219 7.70567 17.3219ZM27.7462 17.3246C27.7462 16.4822 27.5803 15.6479 27.2579 14.8696C26.9355 14.0913 26.4629 13.3841 25.8672 12.7884C25.2715 12.1926 24.5643 11.7201 23.786 11.3977C23.0077 11.0753 22.1734 10.9094 21.331 10.9094C19.6296 10.9094 17.9978 11.5853 16.7947 12.7884C15.5916 13.9914 14.9157 15.6232 14.9157 17.3246C14.9157 19.026 15.5916 20.6578 16.7947 21.8609C17.9978 23.064 19.6296 23.7399 21.331 23.7399C22.1734 23.7399 23.0077 23.5739 23.786 23.2515C24.5643 22.9291 25.2715 22.4566 25.8672 21.8609C26.4629 21.2652 26.9355 20.558 27.2579 19.7796C27.5803 19.0013 27.7462 18.1671 27.7462 17.3246Z" fill="#FF486F"/>
</svg>
