<svg width="145.406006" height="47.856934" viewBox="0 0 145.406 47.8569" fill="none" xmlns="http://www.w3.org/2000/svg" xmlns:xlink="http://www.w3.org/1999/xlink">
	<desc>
			Created with Pixso.
	</desc>
	<defs/>
	<path id="на 3000руб" d="M140.82 0.41C140.4 0.26 139.86 0.24 139.2 0.35C138.24 0.5 136.92 0.87 135.25 1.46C133.58 2.06 132.36 2.53 131.57 2.88Q130.45 3.39 130.01 3.85C129.71 4.15 129.61 4.56 129.69 5.07C129.75 5.43 130.01 5.71 130.48 5.9C130.95 6.12 131.67 6.34 132.64 6.59L133.1 6.7C132.74 6.93 132.39 7.19 132.05 7.48C131.02 8.41 130.27 9.55 129.79 10.88C129.34 12.21 129.22 13.57 129.45 14.96Q129.8 17.14 131.06 18.47Q131.23 18.65 131.42 18.82Q131.94 19.28 132.54 19.54Q133.76 20.08 135.33 19.82C136.57 19.62 137.69 19 138.69 17.96Q139.1 17.52 139.45 17.03Q140.35 15.78 140.84 14.24C141.3 12.82 141.43 11.49 141.23 10.27C140.95 8.53 140.3 7.28 139.28 6.51C138.99 6.31 138.69 6.14 138.37 6.01C137.36 5.28 135.9 4.78 134 4.51C134.56 4.27 135.75 3.86 137.57 3.29C138.97 2.88 140.01 2.53 140.71 2.23Q141.19 2.02 141.4 1.79C141.54 1.64 141.59 1.43 141.55 1.17C141.49 0.81 141.25 0.56 140.82 0.41ZM48 30.74C48.64 29.59 48.84 28.34 48.62 26.97C48.48 26.14 48.1 25.43 47.48 24.86C46.86 24.29 46.04 23.99 45.04 23.98C46.07 23.41 46.88 22.68 47.44 21.81Q48.27 20.54 48.14 19.38Q48.13 19.3 48.12 19.23C47.93 18.08 47.36 17.23 46.42 16.7C45.47 16.16 44.25 16.01 42.76 16.25C41.57 16.45 40.47 16.84 39.45 17.42C38.46 18.01 37.67 18.66 37.1 19.4C36.54 20.12 36.31 20.78 36.41 21.37C36.49 21.88 36.69 22.24 36.99 22.45C37.3 22.65 37.74 22.71 38.31 22.62C38.7 22.55 38.94 22.45 39.05 22.3C39.17 22.16 39.25 21.93 39.29 21.63C39.31 21.39 39.36 21.17 39.43 20.96C39.5 20.74 39.65 20.53 39.87 20.31C40.62 19.51 41.57 19.02 42.75 18.83C43.31 18.73 43.81 18.78 44.24 18.97C44.67 19.13 44.92 19.41 44.98 19.8C45.05 20.57 44.79 21.22 44.18 21.74C43.57 22.24 42.69 22.77 41.54 23.32C40.63 23.78 39.98 24.16 39.59 24.46C39.2 24.74 39.04 25.08 39.11 25.49C39.16 25.85 39.4 26.11 39.81 26.28C40.22 26.45 40.65 26.5 41.09 26.43C41.37 26.38 41.61 26.31 41.8 26.23C42 26.14 42.22 25.98 42.45 25.74C43.29 25.73 43.98 25.91 44.51 26.28C45.04 26.63 45.36 27.1 45.46 27.71C45.55 28.31 45.45 28.96 45.14 29.65C44.85 30.31 44.37 30.9 43.71 31.41C43.06 31.92 42.29 32.25 41.38 32.39Q40.8 32.49 40.28 32.35Q40.25 32.35 40.22 32.34C39.88 32.21 39.46 32.02 38.98 31.77C38.59 31.57 38.26 31.42 38.01 31.33C37.78 31.24 37.54 31.22 37.29 31.26Q36.62 31.37 36.3 31.75C36.09 32 36.01 32.33 36.08 32.74C36.17 33.31 36.5 33.79 37.06 34.2C37.61 34.58 38.29 34.84 39.1 34.98C39.91 35.12 40.71 35.13 41.51 35C42.87 34.78 44.14 34.29 45.32 33.56C46.49 32.82 47.39 31.88 48 30.74ZM54.62 32.12C55.59 32.56 56.67 32.68 57.88 32.49C59.87 32.16 61.43 31.29 62.57 29.89C63.72 28.46 64.47 26.8 64.82 24.9C65.16 22.98 65.18 21.09 64.87 19.23C64.54 17.19 63.85 15.71 62.81 14.81C61.77 13.89 60.41 13.56 58.74 13.83Q55.91 14.3 54.16 15.92Q53.43 16.61 52.89 17.5C51.66 19.5 51.02 22.01 50.95 25.03C50.92 25.66 50.96 26.29 51.07 26.93C51.26 28.12 51.66 29.17 52.27 30.09C52.87 31 53.66 31.67 54.62 32.12ZM71.45 29.36C72.41 29.81 73.5 29.93 74.71 29.73C76.7 29.41 78.26 28.54 79.4 27.14C80.55 25.71 81.3 24.04 81.64 22.15C81.98 20.23 82 18.34 81.7 16.48C81.37 14.44 80.68 12.96 79.64 12.06C78.59 11.13 77.24 10.81 75.57 11.08Q72.74 11.54 70.99 13.17Q70.26 13.86 69.71 14.75C68.49 16.75 67.84 19.26 67.77 22.28C67.75 22.91 67.79 23.54 67.89 24.18C68.09 25.37 68.49 26.42 69.09 27.34C69.7 28.25 70.48 28.92 71.45 29.36ZM88.27 26.61C89.24 27.06 90.33 27.18 91.53 26.98C93.52 26.66 95.08 25.79 96.22 24.38C97.37 22.96 98.12 21.29 98.47 19.39C98.81 17.48 98.83 15.59 98.53 13.73C98.19 11.68 97.5 10.21 96.46 9.31C95.42 8.38 94.06 8.06 92.39 8.33Q89.56 8.79 87.82 10.42Q87.08 11.1 86.54 11.99C85.32 14 84.67 16.51 84.6 19.53C84.57 20.15 84.61 20.79 84.72 21.42C84.91 22.61 85.31 23.67 85.92 24.59C86.52 25.5 87.31 26.17 88.27 26.61ZM60.02 28.03C59.33 29.15 58.45 29.79 57.39 29.97C56.62 30.09 55.99 29.88 55.48 29.32C54.98 28.75 54.63 27.83 54.42 26.57C54.23 25.36 54.26 24.03 54.51 22.56C54.78 21.08 55.25 19.8 55.93 18.72Q56.8 17.32 57.99 16.94Q58.2 16.88 58.41 16.84C60.08 16.57 61.08 17.43 61.41 19.44C61.65 20.91 61.65 22.44 61.42 24C61.2 25.57 60.73 26.91 60.02 28.03ZM76.85 25.28C76.16 26.4 75.28 27.04 74.21 27.22C73.45 27.34 72.81 27.13 72.3 26.57C71.81 26 71.46 25.08 71.25 23.82C71.05 22.61 71.08 21.28 71.33 19.81C71.6 18.33 72.08 17.05 72.76 15.97Q73.62 14.57 74.82 14.19Q75.02 14.12 75.24 14.09C76.91 13.82 77.91 14.68 78.23 16.69Q78.6 18.9 78.24 21.25Q77.92 23.6 76.85 25.28ZM93.68 22.53C92.98 23.65 92.11 24.29 91.04 24.47C90.28 24.59 89.64 24.38 89.13 23.82C88.63 23.25 88.28 22.33 88.08 21.07C87.88 19.86 87.91 18.52 88.16 17.06C88.43 15.58 88.9 14.3 89.58 13.22Q90.45 11.82 91.64 11.44Q91.85 11.37 92.06 11.34C93.73 11.06 94.73 11.93 95.06 13.94Q95.42 16.15 95.07 18.5Q94.74 20.85 93.68 22.53ZM104.5 26.06C104.67 24.16 104.75 23.15 104.75 23.04C105.05 23.43 105.59 23.73 106.37 23.93C107.15 24.11 107.77 24.16 108.23 24.09C109.68 23.85 110.87 23.29 111.78 22.41Q112.39 21.81 112.83 21.1Q113.37 20.22 113.63 19.18C113.96 17.93 114.01 16.63 113.79 15.3C113.63 14.31 113.29 13.44 112.76 12.68C112.23 11.91 111.56 11.35 110.73 10.99Q110.59 10.92 110.43 10.86Q109.33 10.45 108 10.67C106.76 10.88 105.82 11.54 105.18 12.66L105.15 11.96C105.03 11.54 104.73 11.22 104.25 10.98C103.8 10.75 103.35 10.67 102.93 10.74C102.64 10.78 102.34 10.9 102.03 11.1C101.73 11.3 101.59 11.51 101.59 11.75C101.63 11.87 101.69 12.05 101.79 12.29C101.88 12.53 101.98 12.79 102.08 13.06C102.28 13.5 102.39 13.78 102.4 13.88C102.26 15.93 102.07 18.41 101.81 21.31L101.2 29.26Q101.34 29.97 101.77 30.28Q101.79 30.29 101.81 30.31C102.1 30.51 102.44 30.59 102.83 30.52C102.99 30.5 103.24 30.4 103.57 30.24C103.91 30.09 104.1 29.91 104.14 29.71C104.24 29.2 104.36 27.98 104.5 26.06ZM13.16 26.73Q12.76 26.41 12.12 26.38C11.83 26.37 11.59 26.43 11.41 26.55C11.21 26.66 11.1 26.84 11.09 27.09L10.9 31.25L9.62 31.63L8.18 32.05L6.27 32.56C6.36 31.43 6.46 30.2 6.57 28.87C6.44 28.44 6.34 28.12 6.25 27.91C6.18 27.71 6.02 27.53 5.78 27.39C5.55 27.22 5.24 27.18 4.83 27.24Q3.79 27.41 3.23 27.7C2.86 27.87 2.69 28.04 2.72 28.22C2.73 28.29 2.77 28.35 2.83 28.39L3.57 29.09Q3.14 33.81 2.93 36.74Q2.7 39.68 2.75 39.97C2.82 40.38 3.01 40.62 3.34 40.69Q3.82 40.81 4.7 40.66Q5.6 40.49 5.83 40.26C6.01 40.1 6.07 39.87 6.02 39.57L5.87 38.8C5.81 38.47 5.8 38.16 5.83 37.88C5.89 37.23 5.95 36.47 6.03 35.61C8.04 35.09 9.62 34.66 10.77 34.31L10.59 38.74C10.56 39.13 10.74 39.47 11.11 39.75C11.49 40.05 11.89 40.22 12.31 40.24C12.57 40.25 12.86 40.18 13.18 40.01C13.48 39.84 13.64 39.65 13.66 39.44L13.61 27.59C13.6 27.24 13.46 26.95 13.16 26.73ZM122.03 21.56C122.56 21.2 123.08 20.68 123.59 20.02L123.3 22.44C123.2 23.28 123.02 23.99 122.75 24.58C122.48 25.18 122.18 25.63 121.85 25.93C121.52 26.24 121.2 26.42 120.9 26.47C120.51 26.54 120.19 26.53 119.93 26.44C119.7 26.35 119.43 26.2 119.12 26C118.91 25.83 118.71 25.71 118.52 25.63C118.34 25.55 118.12 25.53 117.85 25.58C116.89 25.73 116.49 26.25 116.63 27.12C116.68 27.42 116.86 27.73 117.16 28.04C117.49 28.35 117.94 28.59 118.53 28.75C119.14 28.9 119.88 28.91 120.75 28.77C122.12 28.54 123.2 28.14 124 27.55C124.81 26.96 125.43 26.11 125.85 25.01C126.27 23.9 126.57 22.42 126.74 20.57C126.85 19.44 127.05 16.86 127.34 12.84L127.62 9.05C127.62 8.96 127.63 8.85 127.65 8.72C127.68 8.57 127.68 8.45 127.67 8.36C127.58 7.79 127.06 7.58 126.12 7.74C125.44 7.85 124.98 8.16 124.74 8.67C124.51 9.17 124.36 9.78 124.28 10.53C124.1 12.25 123.96 13.85 123.86 15.32L123.7 17.51C123.33 18.05 122.85 18.52 122.26 18.95C121.68 19.37 121.11 19.63 120.56 19.72C120.13 19.79 119.8 19.73 119.57 19.53C119.34 19.33 119.19 19.04 119.13 18.67Q119.08 18.35 119.1 18.02L119.72 10.59C119.77 10.11 119.78 9.76 119.74 9.55C119.66 9.03 119.15 8.85 118.23 9C117.61 9.1 117.17 9.27 116.92 9.51C116.68 9.74 116.54 10.05 116.5 10.46L115.85 17.7Q115.8 18.37 115.89 18.9C116.08 20.11 116.55 21.02 117.29 21.65C118.05 22.27 119.02 22.49 120.19 22.3C120.9 22.18 121.51 21.93 122.03 21.56ZM26.94 36.83C26.79 36.48 26.66 36.07 26.55 35.61L27.23 27.55C27.25 27.38 27.25 27.21 27.23 27.05C27.2 26.91 27.08 26.78 26.86 26.67C26.65 26.56 26.47 26.52 26.32 26.54C25.91 26.03 25.44 25.63 24.9 25.36C24.38 25.06 23.87 24.88 23.39 24.81C22.9 24.73 22.51 24.71 22.23 24.75C20.76 24.99 19.48 25.6 18.4 26.58Q17.7 27.2 17.17 27.94Q16.46 28.92 16.05 30.11C15.58 31.48 15.47 32.89 15.7 34.32Q16.07 36.56 17.35 37.42Q17.38 37.44 17.42 37.46C18.33 38.02 19.38 38.21 20.57 38.01C21.03 37.94 21.61 37.67 22.3 37.21C23 36.73 23.51 36.19 23.81 35.6C23.8 35.96 23.82 36.32 23.88 36.68C23.94 37.05 24.12 37.3 24.41 37.44C24.73 37.59 25.21 37.61 25.85 37.5C26.04 37.47 26.26 37.38 26.51 37.23C26.78 37.08 26.92 36.95 26.94 36.83ZM137.91 13.36C137.71 14.5 137.39 15.47 136.94 16.28Q136.23 17.49 135.38 17.62C135.04 17.68 134.68 17.61 134.31 17.42C133.91 17.23 133.56 16.93 133.26 16.52C132.96 16.13 132.76 15.68 132.68 15.17C132.53 14.28 132.56 13.29 132.74 12.2C132.93 11.13 133.27 10.2 133.76 9.41Q134.36 8.44 135.2 8.15Q135.39 8.08 135.59 8.05C136.9 7.83 137.69 8.51 137.95 10.1C138.12 11.12 138.1 12.21 137.91 13.36ZM105.04 19.99C105.03 19.9 105.02 19.75 105.02 19.53L105.33 15.38C105.78 14.68 106.19 14.16 106.57 13.8C106.97 13.43 107.5 13.19 108.18 13.08C108.78 12.98 109.33 13.19 109.81 13.71C110.31 14.21 110.63 14.84 110.75 15.58Q110.94 16.78 110.68 18.19C110.5 19.11 110.16 19.93 109.66 20.63C109.17 21.31 108.53 21.71 107.75 21.84C107.5 21.88 107.18 21.84 106.78 21.73C106.37 21.59 106 21.38 105.66 21.09C105.34 20.8 105.13 20.43 105.04 19.99ZM23.33 27.47C23.69 27.69 23.96 27.98 24.13 28.35L23.83 32.2C23.77 32.72 23.55 33.25 23.16 33.79C22.79 34.3 22.33 34.74 21.79 35.11C21.27 35.47 20.78 35.68 20.34 35.75C19.82 35.84 19.44 35.65 19.18 35.2C18.93 34.75 18.74 34.16 18.61 33.41Q18.43 32.27 18.88 30.88C19.19 29.95 19.65 29.15 20.27 28.46C20.9 27.76 21.62 27.34 22.44 27.21C22.69 27.17 22.99 27.25 23.33 27.47Z" fill="#C28DD1" fill-opacity="1.000000" fill-rule="evenodd"/>
	<path id="на 3000руб" d="M12.12 26.38C12.55 26.4 12.89 26.52 13.16 26.73C13.46 26.95 13.6 27.24 13.61 27.59L13.66 39.44C13.64 39.65 13.48 39.84 13.18 40.01C12.86 40.18 12.57 40.25 12.31 40.24C11.89 40.22 11.49 40.05 11.11 39.75C10.74 39.47 10.56 39.13 10.59 38.74L10.77 34.31C9.62 34.66 8.04 35.09 6.03 35.61C5.95 36.47 5.89 37.23 5.83 37.88C5.8 38.16 5.81 38.47 5.87 38.8L6.02 39.57C6.07 39.87 6.01 40.1 5.83 40.26C5.68 40.41 5.3 40.55 4.7 40.66C4.11 40.76 3.66 40.77 3.34 40.69C3.01 40.62 2.82 40.38 2.75 39.97C2.72 39.77 2.78 38.7 2.93 36.74C3.07 34.79 3.28 32.24 3.57 29.09L2.83 28.39C2.77 28.35 2.73 28.29 2.72 28.22C2.69 28.04 2.86 27.87 3.23 27.7C3.6 27.51 4.13 27.36 4.83 27.24C5.24 27.18 5.55 27.22 5.78 27.39C6.02 27.53 6.18 27.71 6.25 27.91C6.34 28.12 6.44 28.44 6.57 28.87C6.46 30.2 6.36 31.43 6.27 32.56L8.18 32.05L9.62 31.63L10.9 31.25L11.09 27.09C11.1 26.84 11.21 26.66 11.41 26.55C11.59 26.43 11.83 26.37 12.12 26.38ZM26.55 35.61C26.66 36.07 26.79 36.48 26.94 36.83C26.92 36.95 26.78 37.08 26.51 37.23C26.26 37.38 26.04 37.47 25.85 37.5C25.21 37.61 24.73 37.59 24.41 37.44C24.12 37.3 23.94 37.05 23.88 36.68C23.82 36.32 23.8 35.96 23.81 35.6C23.51 36.19 23 36.73 22.3 37.21C21.61 37.67 21.03 37.94 20.57 38.01C19.38 38.21 18.33 38.02 17.42 37.46C16.52 36.9 15.95 35.85 15.7 34.32C15.47 32.89 15.58 31.48 16.05 30.11C16.54 28.72 17.32 27.54 18.4 26.58C19.48 25.6 20.76 24.99 22.23 24.75C22.51 24.71 22.9 24.73 23.39 24.81C23.87 24.88 24.38 25.06 24.9 25.36C25.44 25.63 25.91 26.03 26.32 26.54C26.47 26.52 26.65 26.56 26.86 26.67C27.08 26.78 27.2 26.91 27.23 27.05C27.25 27.21 27.25 27.38 27.23 27.55L26.55 35.61ZM24.13 28.35C23.96 27.98 23.69 27.69 23.33 27.47C22.99 27.25 22.69 27.17 22.44 27.21C21.62 27.34 20.9 27.76 20.27 28.46C19.65 29.15 19.19 29.95 18.88 30.88C18.58 31.8 18.49 32.65 18.61 33.41C18.74 34.16 18.93 34.75 19.18 35.2C19.44 35.65 19.82 35.84 20.34 35.75C20.78 35.68 21.27 35.47 21.79 35.11C22.33 34.74 22.79 34.3 23.16 33.79C23.55 33.25 23.77 32.72 23.83 32.2L24.13 28.35ZM48.62 26.97C48.84 28.34 48.64 29.59 48 30.74C47.39 31.88 46.49 32.82 45.32 33.56C44.14 34.29 42.87 34.78 41.51 35C40.71 35.13 39.91 35.12 39.1 34.98C38.29 34.84 37.61 34.58 37.06 34.2C36.5 33.79 36.17 33.31 36.08 32.74C36.01 32.33 36.09 32 36.3 31.75C36.51 31.5 36.84 31.33 37.29 31.26C37.54 31.22 37.78 31.24 38.01 31.33C38.26 31.42 38.59 31.57 38.98 31.77C39.46 32.02 39.88 32.21 40.22 32.34C40.59 32.44 40.97 32.46 41.38 32.39C42.29 32.25 43.06 31.92 43.71 31.41C44.37 30.9 44.85 30.31 45.14 29.65C45.45 28.96 45.55 28.31 45.46 27.71C45.36 27.1 45.04 26.63 44.51 26.28C43.98 25.91 43.29 25.73 42.45 25.74C42.22 25.98 42 26.14 41.8 26.23C41.61 26.31 41.37 26.38 41.09 26.43C40.65 26.5 40.22 26.45 39.81 26.28C39.4 26.11 39.16 25.85 39.11 25.49C39.04 25.08 39.2 24.74 39.59 24.46C39.98 24.16 40.63 23.78 41.54 23.32C42.69 22.77 43.57 22.24 44.18 21.74C44.79 21.22 45.05 20.57 44.98 19.8C44.92 19.41 44.67 19.13 44.24 18.97C43.81 18.78 43.31 18.73 42.75 18.83C41.57 19.02 40.62 19.51 39.87 20.31C39.65 20.53 39.5 20.74 39.43 20.96C39.36 21.17 39.31 21.39 39.29 21.63C39.25 21.93 39.17 22.16 39.05 22.3C38.94 22.45 38.7 22.55 38.31 22.62C37.74 22.71 37.3 22.65 36.99 22.45C36.69 22.24 36.49 21.88 36.41 21.37C36.31 20.78 36.54 20.12 37.1 19.4C37.67 18.66 38.46 18.01 39.45 17.42C40.47 16.84 41.57 16.45 42.76 16.25C44.25 16.01 45.47 16.16 46.42 16.7C47.36 17.23 47.93 18.08 48.12 19.23C48.25 20.05 48.03 20.91 47.44 21.81C46.88 22.68 46.07 23.41 45.04 23.98C46.04 23.99 46.86 24.29 47.48 24.86C48.1 25.43 48.48 26.14 48.62 26.97ZM57.88 32.49C56.67 32.68 55.59 32.56 54.62 32.12C53.66 31.67 52.87 31 52.27 30.09C51.66 29.17 51.26 28.12 51.07 26.93C50.96 26.29 50.92 25.66 50.95 25.03C51.02 22.01 51.66 19.5 52.89 17.5C54.11 15.49 56.06 14.27 58.74 13.83C60.41 13.56 61.77 13.89 62.81 14.81C63.85 15.71 64.54 17.19 64.87 19.23C65.18 21.09 65.16 22.98 64.82 24.9C64.47 26.8 63.72 28.46 62.57 29.89C61.43 31.29 59.87 32.16 57.88 32.49ZM57.39 29.97C58.45 29.79 59.33 29.15 60.02 28.03C60.73 26.91 61.2 25.57 61.42 24C61.65 22.44 61.65 20.91 61.41 19.44C61.08 17.43 60.08 16.57 58.41 16.84C57.44 17 56.61 17.63 55.93 18.72C55.25 19.8 54.78 21.08 54.51 22.56C54.26 24.03 54.23 25.36 54.42 26.57C54.63 27.83 54.98 28.75 55.48 29.32C55.99 29.88 56.62 30.09 57.39 29.97ZM74.71 29.73C73.5 29.93 72.41 29.81 71.45 29.36C70.48 28.92 69.7 28.25 69.09 27.34C68.49 26.42 68.09 25.37 67.89 24.18C67.79 23.54 67.75 22.91 67.77 22.28C67.84 19.26 68.49 16.75 69.71 14.75C70.93 12.74 72.89 11.52 75.57 11.08C77.24 10.81 78.59 11.13 79.64 12.06C80.68 12.96 81.37 14.44 81.7 16.48C82 18.34 81.98 20.23 81.64 22.15C81.3 24.04 80.55 25.71 79.4 27.14C78.26 28.54 76.7 29.41 74.71 29.73ZM74.21 27.22C75.28 27.04 76.16 26.4 76.85 25.28C77.56 24.16 78.02 22.82 78.24 21.25C78.48 19.68 78.47 18.16 78.23 16.69C77.91 14.68 76.91 13.82 75.24 14.09C74.26 14.25 73.43 14.88 72.76 15.97C72.08 17.05 71.6 18.33 71.33 19.81C71.08 21.28 71.05 22.61 71.25 23.82C71.46 25.08 71.81 26 72.3 26.57C72.81 27.13 73.45 27.34 74.21 27.22ZM91.53 26.98C90.33 27.18 89.24 27.06 88.27 26.61C87.31 26.17 86.52 25.5 85.92 24.59C85.31 23.67 84.91 22.61 84.72 21.42C84.61 20.79 84.57 20.15 84.6 19.53C84.67 16.51 85.32 14 86.54 11.99C87.76 9.99 89.71 8.77 92.39 8.33C94.06 8.06 95.42 8.38 96.46 9.31C97.5 10.21 98.19 11.68 98.53 13.73C98.83 15.59 98.81 17.48 98.47 19.39C98.12 21.29 97.37 22.96 96.22 24.38C95.08 25.79 93.52 26.66 91.53 26.98ZM91.04 24.47C92.11 24.29 92.98 23.65 93.68 22.53C94.39 21.41 94.85 20.07 95.07 18.5C95.3 16.93 95.3 15.41 95.06 13.94C94.73 11.93 93.73 11.06 92.06 11.34C91.09 11.5 90.26 12.12 89.58 13.22C88.9 14.3 88.43 15.58 88.16 17.06C87.91 18.52 87.88 19.86 88.08 21.07C88.28 22.33 88.63 23.25 89.13 23.82C89.64 24.38 90.28 24.59 91.04 24.47ZM104.75 23.04C104.75 23.15 104.67 24.16 104.5 26.06C104.36 27.98 104.24 29.2 104.14 29.71C104.1 29.91 103.91 30.09 103.57 30.24C103.24 30.4 102.99 30.5 102.83 30.52C102.44 30.59 102.1 30.51 101.81 30.31C101.5 30.1 101.3 29.75 101.2 29.26L101.81 21.31C102.07 18.41 102.26 15.93 102.4 13.88C102.39 13.78 102.28 13.5 102.08 13.06C101.98 12.79 101.88 12.53 101.79 12.29C101.69 12.05 101.63 11.87 101.59 11.75C101.59 11.51 101.73 11.3 102.03 11.1C102.34 10.9 102.64 10.78 102.93 10.74C103.35 10.67 103.8 10.75 104.25 10.98C104.73 11.22 105.03 11.54 105.15 11.96L105.18 12.66C105.82 11.54 106.76 10.88 108 10.67C109.01 10.51 109.93 10.61 110.73 10.99C111.56 11.35 112.23 11.91 112.76 12.68C113.29 13.44 113.63 14.31 113.79 15.3C114.01 16.63 113.96 17.93 113.63 19.18C113.31 20.44 112.69 21.52 111.78 22.41C110.87 23.29 109.68 23.85 108.23 24.09C107.77 24.16 107.15 24.11 106.37 23.93C105.59 23.73 105.05 23.43 104.75 23.04ZM105.02 19.53C105.02 19.75 105.03 19.9 105.04 19.99C105.13 20.43 105.34 20.8 105.66 21.09C106 21.38 106.37 21.59 106.78 21.73C107.18 21.84 107.5 21.88 107.75 21.84C108.53 21.71 109.17 21.31 109.66 20.63C110.16 19.93 110.5 19.11 110.68 18.19C110.86 17.25 110.88 16.38 110.75 15.58C110.63 14.84 110.31 14.21 109.81 13.71C109.33 13.19 108.78 12.98 108.18 13.08C107.5 13.19 106.97 13.43 106.57 13.8C106.19 14.16 105.78 14.68 105.33 15.38L105.02 19.53ZM123.59 20.02C123.08 20.68 122.56 21.2 122.03 21.56C121.51 21.93 120.9 22.18 120.19 22.3C119.02 22.49 118.05 22.27 117.29 21.65C116.55 21.02 116.08 20.11 115.89 18.9C115.83 18.54 115.82 18.14 115.85 17.7L116.5 10.46C116.54 10.05 116.68 9.74 116.92 9.51C117.17 9.27 117.61 9.1 118.23 9C119.15 8.85 119.66 9.03 119.74 9.55C119.78 9.76 119.77 10.11 119.72 10.59L119.1 18.02C119.09 18.24 119.09 18.46 119.13 18.67C119.19 19.04 119.34 19.33 119.57 19.53C119.8 19.73 120.13 19.79 120.56 19.72C121.11 19.63 121.68 19.37 122.26 18.95C122.85 18.52 123.33 18.05 123.7 17.51L123.86 15.32C123.96 13.85 124.1 12.25 124.28 10.53C124.36 9.78 124.51 9.17 124.74 8.67C124.98 8.16 125.44 7.85 126.12 7.74C127.06 7.58 127.58 7.79 127.67 8.36C127.68 8.45 127.68 8.57 127.65 8.72C127.63 8.85 127.62 8.96 127.62 9.05L127.34 12.84C127.05 16.86 126.85 19.44 126.74 20.57C126.57 22.42 126.27 23.9 125.85 25.01C125.43 26.11 124.81 26.96 124 27.55C123.2 28.14 122.12 28.54 120.75 28.77C119.88 28.91 119.14 28.9 118.53 28.75C117.94 28.59 117.49 28.35 117.16 28.04C116.86 27.73 116.68 27.42 116.63 27.12C116.49 26.25 116.89 25.73 117.85 25.58C118.12 25.53 118.34 25.55 118.52 25.63C118.71 25.71 118.91 25.83 119.12 26C119.43 26.2 119.7 26.35 119.93 26.44C120.19 26.53 120.51 26.54 120.9 26.47C121.2 26.42 121.52 26.24 121.85 25.93C122.18 25.63 122.48 25.18 122.75 24.58C123.02 23.99 123.2 23.28 123.3 22.44L123.59 20.02ZM136.94 16.28C137.39 15.47 137.71 14.5 137.91 13.36C138.1 12.21 138.12 11.12 137.95 10.1C137.69 8.51 136.9 7.83 135.59 8.05C134.86 8.17 134.25 8.62 133.76 9.41C133.27 10.2 132.93 11.13 132.74 12.2C132.56 13.29 132.53 14.28 132.68 15.17C132.76 15.68 132.96 16.13 133.26 16.52C133.56 16.93 133.91 17.23 134.31 17.42C134.68 17.61 135.04 17.68 135.38 17.62C135.95 17.53 136.47 17.08 136.94 16.28ZM139.2 0.35C139.86 0.24 140.4 0.26 140.82 0.41C141.25 0.56 141.49 0.81 141.55 1.17C141.59 1.43 141.54 1.64 141.4 1.79C141.26 1.94 141.03 2.09 140.71 2.23C140.01 2.53 138.97 2.88 137.57 3.29C135.75 3.86 134.56 4.27 134 4.51C135.9 4.78 137.36 5.28 138.37 6.01L138.37 6.01C138.69 6.14 138.99 6.31 139.28 6.51C140.3 7.28 140.95 8.53 141.23 10.27C141.43 11.49 141.3 12.82 140.84 14.24C140.38 15.67 139.66 16.91 138.69 17.96C137.69 19 136.57 19.62 135.33 19.82C133.77 20.08 132.46 19.74 131.42 18.82C130.37 17.9 129.72 16.61 129.45 14.96C129.22 13.57 129.34 12.21 129.79 10.88C130.27 9.55 131.02 8.41 132.05 7.48C132.39 7.19 132.74 6.93 133.1 6.7L132.64 6.59C131.67 6.34 130.95 6.12 130.48 5.9C130.01 5.71 129.75 5.43 129.69 5.07C129.61 4.56 129.71 4.15 130.01 3.85C130.31 3.54 130.83 3.22 131.57 2.88C132.36 2.53 133.58 2.06 135.25 1.46C136.92 0.87 138.24 0.5 139.2 0.35Z" stroke="#FFFFFF" stroke-opacity="1.000000" stroke-width="0.000000"/>
</svg>
