<svg width="77.593994" height="39.249268" viewBox="0 0 77.594 39.2493" fill="none" xmlns="http://www.w3.org/2000/svg" xmlns:xlink="http://www.w3.org/1999/xlink">
	<desc>
			Created with Pixso.
	</desc>
	<defs/>
	<path id="Акция" d="M9.27 27.32Q11.22 26.39 14.54 25.05Q14.83 27.72 15.06 28.78C15.27 29.74 15.55 30.4 15.88 30.75C16.24 31.1 16.82 31.18 17.62 31C18.05 30.91 18.38 30.66 18.62 30.26Q18.9 29.76 18.92 29.25Q18.93 29.11 18.92 28.97C18.54 27.84 18.19 26.58 17.89 25.19C17.55 23.68 17.28 22.16 17.07 20.62C16.87 19.06 16.67 17.19 16.46 15.01C16.42 14.74 16.38 14.34 16.33 13.79Q16.23 13.32 16.04 13.08C15.93 12.92 15.72 12.82 15.42 12.78C15.11 12.74 14.68 12.78 14.12 12.9C13.57 13.02 13.06 13.28 12.58 13.68C12.09 14.09 11.73 14.54 11.47 15.06Q9.9 18.2 8.83 20.48Q7.79 22.76 6.89 25.06Q4.73 26.67 4.9 27.43C4.9 27.47 4.97 27.58 5.11 27.77Q5.31 28.06 5.36 28.27C4.66 29.6 4.22 30.69 4.03 31.52Q3.75 32.74 3.71 32.81C3.76 33.05 4.01 33.26 4.45 33.42C4.91 33.56 5.4 33.57 5.92 33.45C6.24 33.38 6.49 33.24 6.69 33.03C6.9 32.82 7.15 32.49 7.43 32.04C7.69 31.63 7.92 31.19 8.11 30.7C8.31 30.2 8.52 29.58 8.75 28.85C8.82 28.59 8.99 28.08 9.27 27.32ZM12.07 23.27C11.44 23.51 10.98 23.69 10.68 23.83Q12.74 18.54 13.5 17.1C13.53 18.22 13.73 20.02 14.11 22.49L12.07 23.27ZM33.06 15.31Q32.79 14.93 32.65 14.8C32.51 14.66 32.23 14.6 31.83 14.59C31.44 14.59 31.17 14.6 31.03 14.63C30.5 14.86 29.82 15.34 29 16.07C28.17 16.81 27.38 17.61 26.63 18.48C25.9 19.34 25.4 20.04 25.14 20.58L25.15 20L25.17 19.99L25.28 16.73Q25.25 16.62 25.2 16.52Q24.96 16.05 24.28 15.82C23.72 15.63 23.22 15.59 22.78 15.68C22.5 15.74 22.2 15.88 21.88 16.1C21.58 16.32 21.43 16.54 21.42 16.78C21.48 17.05 21.57 17.41 21.69 17.89C21.81 18.34 21.91 18.69 21.99 18.95C21.98 19.42 21.97 19.92 21.96 20.45C21.89 22.31 21.81 24.35 21.71 26.56C21.69 27.15 21.6 27.92 21.44 28.86Q21.59 29.39 21.94 29.66Q22.5 30.09 23.57 29.85L24.3 29.66C24.49 29.62 24.63 29.45 24.71 29.16C24.8 28.88 24.87 28.3 24.91 27.43C24.95 26.53 25 24.89 25.06 22.5C25.42 23.18 26.02 23.94 26.87 24.78C27.72 25.64 28.58 26.4 29.44 27.06C30.32 27.69 30.98 28.04 31.41 28.09C31.59 28.12 31.81 28.11 32.1 28.05C32.41 27.98 32.77 27.85 33.17 27.67C33.58 27.49 33.86 27.36 34.03 27.29C34.26 27.18 34.36 27.03 34.32 26.84C34.27 26.63 34.1 26.42 33.82 26.2C33.51 25.99 33.28 25.91 33.12 25.94Q32.91 25.99 31.63 25.06C30.77 24.44 29.95 23.75 29.16 23.01C28.37 22.28 27.91 21.71 27.78 21.29C28.28 20.79 29.03 20.04 30.02 19.03C30.44 18.6 30.88 18.17 31.33 17.72C31.46 17.58 31.63 17.4 31.82 17.19L32.05 16.98L32.23 16.8C32.33 16.76 32.53 16.67 32.84 16.53C33.14 16.39 33.32 16.25 33.38 16.13C33.4 16.11 33.39 16.05 33.37 15.96C33.34 15.81 33.24 15.59 33.06 15.31ZM48.78 22.84Q47.62 21.99 45.91 21.87Q45.95 19.95 46.03 16.67L46.14 12.17C46.14 12.08 46.14 11.97 46.15 11.84C46.17 11.69 46.17 11.57 46.15 11.48C46.03 10.92 45.5 10.74 44.57 10.94C43.9 11.09 43.46 11.43 43.25 11.96C43.04 12.46 42.92 13.09 42.89 13.83C42.86 14.45 42.81 16.1 42.74 18.78L42.68 21.04C42.28 21.53 41.65 22.07 40.8 22.64C39.97 23.21 39.36 23.54 38.97 23.62C38.83 23.66 38.66 23.6 38.44 23.47C38.23 23.33 38.09 23.15 38.04 22.92Q37.17 18.99 38.74 14.31C38.83 14.05 38.94 13.78 39.09 13.51C39.22 13.21 39.28 13.03 39.27 12.97C39.22 12.75 39.02 12.59 38.67 12.5C38.33 12.39 37.85 12.4 37.24 12.54C36.66 12.67 36.27 12.85 36.06 13.08C35.87 13.3 35.71 13.64 35.59 14.09Q34.11 19.75 35.07 24.1Q35.24 24.87 35.71 25.33Q36.81 26.4 39.54 25.79C39.98 25.7 40.49 25.39 41.07 24.87C41.66 24.36 42.16 23.86 42.57 23.38L42.63 24.42C42.75 24.95 43.35 25.1 44.45 24.87C44.72 24.85 45 24.84 45.3 24.85C45.96 24.85 46.6 24.95 47.21 25.15C47.85 25.34 48.16 25.66 48.14 26.1C48.14 26.43 47.99 26.71 47.7 26.95C47.4 27.2 47.12 27.32 46.87 27.32C46.6 27.2 46.27 27.1 45.89 27.02C45.59 27.02 45.36 27.2 45.2 27.53C45.01 27.84 44.92 28.2 44.94 28.61C44.93 29.55 45.35 30.03 46.2 30.04C47.3 30.05 48.24 29.68 48.99 28.93C49.73 28.19 50.11 27.17 50.13 25.85C50.13 24.51 49.68 23.5 48.78 22.84ZM73.4 5.24Q73.28 5.15 73.12 5.13C72.79 5.07 72.34 5.11 71.76 5.23C71.27 5.34 70.93 5.46 70.73 5.6C70.24 5.52 69.72 5.55 69.17 5.67C68.21 5.88 67.34 6.29 66.57 6.88C65.81 7.45 65.25 8.13 64.89 8.91C64.51 9.71 64.41 10.51 64.59 11.3C64.84 12.46 65.44 13.34 66.36 13.94C66.71 14.16 67.06 14.32 67.44 14.43L67.17 14.73C66.74 15.21 66.17 16.02 65.44 17.16Q64.68 18.33 64.46 18.82C64.3 19.13 64.27 19.39 64.36 19.61C64.47 19.86 64.81 20.06 65.4 20.21Q66.27 20.4 66.78 20.18C66.96 20.1 67.28 19.69 67.72 18.95C68.16 18.21 68.59 17.38 68.99 16.46C69.4 15.56 69.65 14.89 69.73 14.44L69.75 14.38C70.04 14.3 70.33 14.2 70.59 14.09C70.58 15.01 70.56 16.02 70.55 17.11Q70.76 17.72 70.89 18.06C70.99 18.25 71.16 18.42 71.39 18.55C71.64 18.7 71.97 18.73 72.38 18.64C73.06 18.49 73.58 18.31 73.94 18.1C74.31 17.91 74.47 17.73 74.43 17.55Q74.42 17.51 74.4 17.47Q74.37 17.42 74.31 17.38L73.53 16.73C73.62 13.57 73.69 11.02 73.74 9.05C73.78 7.09 73.78 6.01 73.74 5.82Q73.65 5.41 73.4 5.24ZM61.24 21.41C61.46 21.25 61.57 21.01 61.58 20.7C61.57 19.57 61.61 17.23 61.71 13.65L61.82 9.15C61.81 9.06 61.82 8.94 61.82 8.81C61.85 8.66 61.85 8.54 61.83 8.45C61.7 7.89 61.18 7.71 60.24 7.92C59.58 8.07 59.14 8.4 58.92 8.93C58.72 9.44 58.6 10.06 58.56 10.81C58.53 11.42 58.48 13.07 58.41 15.76L58.36 18.01C57.95 18.5 57.32 19.04 56.48 19.61C55.64 20.19 55.03 20.51 54.65 20.6C54.51 20.63 54.33 20.58 54.12 20.44Q53.91 20.31 53.8 20.12Q53.75 20.02 53.72 19.89Q52.85 15.97 54.41 11.28C54.5 11.02 54.62 10.76 54.76 10.49C54.89 10.18 54.96 10 54.94 9.95C54.89 9.72 54.69 9.56 54.34 9.47C54 9.36 53.53 9.38 52.91 9.51Q52.04 9.71 51.73 10.05C51.54 10.28 51.39 10.62 51.27 11.07C50.28 14.84 50.1 18.18 50.75 21.08C51.12 22.78 52.61 23.34 55.21 22.77C55.65 22.67 56.16 22.36 56.75 21.85C57.33 21.33 57.83 20.83 58.24 20.36L58.31 21.39C58.43 21.94 59.09 22.08 60.3 21.81C60.71 21.72 61.02 21.58 61.24 21.41ZM69.15 11.95C68.77 12.03 68.42 11.98 68.12 11.79C67.82 11.6 67.62 11.28 67.53 10.84C67.36 10.09 67.45 9.46 67.8 8.96C68.15 8.45 68.62 8.14 69.2 8.01C69.56 7.93 69.94 7.99 70.31 8.18C70.5 8.27 70.64 8.39 70.75 8.55Q70.73 9.69 70.69 11.14C70.37 11.52 69.86 11.79 69.15 11.95Z" fill="#F49563" fill-opacity="1.000000" fill-rule="evenodd"/>
	<path id="Акция" d="M14.54 25.05C12.32 25.95 10.57 26.7 9.27 27.32C8.99 28.08 8.82 28.59 8.75 28.85C8.52 29.58 8.31 30.2 8.11 30.7C7.92 31.19 7.69 31.63 7.43 32.04C7.15 32.49 6.9 32.82 6.69 33.03C6.49 33.24 6.24 33.38 5.92 33.45C5.4 33.57 4.91 33.56 4.45 33.42C4.01 33.26 3.76 33.05 3.71 32.81C3.74 32.77 3.84 32.34 4.03 31.52C4.22 30.69 4.66 29.6 5.36 28.27C5.33 28.13 5.24 27.96 5.11 27.77C4.97 27.58 4.9 27.47 4.9 27.43C4.78 26.92 5.45 26.13 6.89 25.06C7.49 23.53 8.13 22 8.83 20.48C9.54 18.96 10.42 17.15 11.47 15.06C11.73 14.54 12.09 14.09 12.58 13.68C13.06 13.28 13.57 13.02 14.12 12.9C14.68 12.78 15.11 12.74 15.42 12.78C15.72 12.82 15.93 12.92 16.04 13.08C16.16 13.24 16.26 13.48 16.33 13.79C16.38 14.34 16.42 14.74 16.46 15.01C16.67 17.19 16.87 19.06 17.07 20.62C17.28 22.16 17.55 23.68 17.89 25.19C18.19 26.58 18.54 27.84 18.92 28.97C18.96 29.41 18.86 29.83 18.62 30.26C18.38 30.66 18.05 30.91 17.62 31C16.82 31.18 16.24 31.1 15.88 30.75C15.55 30.4 15.27 29.74 15.06 28.78C14.9 28.07 14.73 26.83 14.54 25.05ZM10.68 23.83C10.98 23.69 11.44 23.51 12.07 23.27L14.11 22.49C13.73 20.02 13.53 18.22 13.5 17.1C12.99 18.06 12.05 20.3 10.68 23.83ZM32.65 14.8C32.74 14.89 32.88 15.06 33.06 15.31C33.24 15.59 33.34 15.81 33.37 15.96C33.39 16.05 33.4 16.11 33.38 16.13C33.32 16.25 33.14 16.39 32.84 16.53C32.53 16.67 32.33 16.76 32.23 16.8L32.05 16.98L31.82 17.19C31.63 17.4 31.46 17.58 31.33 17.72C30.88 18.17 30.44 18.6 30.02 19.03C29.03 20.04 28.28 20.79 27.78 21.29C27.91 21.71 28.37 22.28 29.16 23.01C29.95 23.75 30.77 24.44 31.63 25.06C32.48 25.68 32.98 25.97 33.12 25.94C33.28 25.91 33.51 25.99 33.82 26.2C34.1 26.42 34.27 26.63 34.32 26.84C34.36 27.03 34.26 27.18 34.03 27.29C33.86 27.36 33.58 27.49 33.17 27.67C32.77 27.85 32.41 27.98 32.1 28.05C31.81 28.11 31.59 28.12 31.41 28.09C30.98 28.04 30.32 27.69 29.44 27.06C28.58 26.4 27.72 25.64 26.87 24.78C26.02 23.94 25.42 23.18 25.06 22.5C25 24.89 24.95 26.53 24.91 27.43C24.87 28.3 24.8 28.88 24.71 29.16C24.63 29.45 24.49 29.62 24.3 29.66L23.57 29.85C22.41 30.11 21.7 29.78 21.44 28.86C21.6 27.92 21.69 27.15 21.71 26.56C21.81 24.35 21.89 22.31 21.96 20.45C21.97 19.92 21.98 19.42 21.99 18.95C21.91 18.69 21.81 18.34 21.69 17.89C21.57 17.41 21.48 17.05 21.42 16.78C21.43 16.54 21.58 16.32 21.88 16.1C22.2 15.88 22.5 15.74 22.78 15.68C23.22 15.59 23.72 15.63 24.28 15.82C24.84 16.01 25.17 16.31 25.28 16.73L25.17 19.99L25.15 20L25.14 20.58C25.4 20.04 25.9 19.34 26.63 18.48C27.38 17.61 28.17 16.81 29 16.07C29.82 15.34 30.5 14.86 31.03 14.63C31.17 14.6 31.44 14.59 31.83 14.59C32.23 14.6 32.51 14.66 32.65 14.8ZM45.91 21.87C47.05 21.95 48.01 22.27 48.78 22.84C49.68 23.5 50.13 24.51 50.13 25.85C50.11 27.17 49.73 28.19 48.99 28.93C48.24 29.68 47.3 30.05 46.2 30.04C45.35 30.03 44.93 29.55 44.94 28.61C44.92 28.2 45.01 27.84 45.2 27.53C45.36 27.2 45.59 27.02 45.89 27.02C46.27 27.1 46.6 27.2 46.87 27.32C47.12 27.32 47.4 27.2 47.7 26.95C47.99 26.71 48.14 26.43 48.14 26.1C48.16 25.66 47.85 25.34 47.21 25.15C46.6 24.95 45.96 24.85 45.3 24.85C45 24.84 44.72 24.85 44.45 24.87C43.35 25.1 42.75 24.95 42.63 24.42L42.57 23.38C42.16 23.86 41.66 24.36 41.07 24.87C40.49 25.39 39.98 25.7 39.54 25.79C36.94 26.37 35.45 25.81 35.07 24.1C34.43 21.2 34.6 17.87 35.59 14.09C35.71 13.64 35.87 13.3 36.06 13.08C36.27 12.85 36.66 12.67 37.24 12.54C37.85 12.4 38.33 12.39 38.67 12.5C39.02 12.59 39.22 12.75 39.27 12.97C39.28 13.03 39.22 13.21 39.09 13.51C38.94 13.78 38.83 14.05 38.74 14.31C37.7 17.43 37.46 20.3 38.04 22.92C38.09 23.15 38.23 23.33 38.44 23.47C38.66 23.6 38.83 23.66 38.97 23.62C39.36 23.54 39.97 23.21 40.8 22.64C41.65 22.07 42.28 21.53 42.68 21.04L42.74 18.78C42.81 16.1 42.86 14.45 42.89 13.83C42.92 13.09 43.04 12.46 43.25 11.96C43.46 11.43 43.9 11.09 44.57 10.94C45.5 10.74 46.03 10.92 46.15 11.48C46.17 11.57 46.17 11.69 46.15 11.84C46.14 11.97 46.14 12.08 46.14 12.17L46.03 16.67C45.98 18.86 45.94 20.59 45.91 21.87ZM61.58 20.7C61.57 21.01 61.46 21.25 61.24 21.41C61.02 21.58 60.71 21.72 60.3 21.81C59.09 22.08 58.43 21.94 58.31 21.39L58.24 20.36C57.83 20.83 57.33 21.33 56.75 21.85C56.16 22.36 55.65 22.67 55.21 22.77C52.61 23.34 51.12 22.78 50.75 21.08C50.1 18.18 50.28 14.84 51.27 11.07C51.39 10.62 51.54 10.28 51.73 10.05C51.94 9.82 52.33 9.64 52.91 9.51C53.53 9.38 54 9.36 54.34 9.47C54.69 9.56 54.89 9.72 54.94 9.95C54.96 10 54.89 10.18 54.76 10.49C54.62 10.76 54.5 11.02 54.41 11.28C53.37 14.41 53.14 17.28 53.72 19.89C53.77 20.12 53.9 20.3 54.12 20.44C54.33 20.58 54.51 20.63 54.65 20.6C55.03 20.51 55.64 20.19 56.48 19.61C57.32 19.04 57.95 18.5 58.36 18.01L58.41 15.76C58.48 13.07 58.53 11.42 58.56 10.81C58.6 10.06 58.72 9.44 58.92 8.93C59.14 8.4 59.58 8.07 60.24 7.92C61.18 7.71 61.7 7.89 61.83 8.45C61.85 8.54 61.85 8.66 61.82 8.81C61.82 8.94 61.81 9.06 61.82 9.15L61.71 13.65C61.61 17.23 61.57 19.57 61.58 20.7ZM68.12 11.79C68.42 11.98 68.77 12.03 69.15 11.95C69.86 11.79 70.37 11.52 70.69 11.14C70.71 10.17 70.74 9.31 70.75 8.55C70.64 8.39 70.5 8.27 70.31 8.18C69.94 7.99 69.56 7.93 69.2 8.01C68.62 8.14 68.15 8.45 67.8 8.96C67.45 9.46 67.36 10.09 67.53 10.84C67.62 11.28 67.82 11.6 68.12 11.79ZM73.12 5.13C73.44 5.18 73.65 5.41 73.74 5.82C73.78 6.01 73.78 7.09 73.74 9.05C73.69 11.02 73.62 13.57 73.53 16.73L74.31 17.38C74.37 17.42 74.41 17.48 74.43 17.55C74.47 17.73 74.31 17.91 73.94 18.1C73.58 18.31 73.06 18.49 72.38 18.64C71.97 18.73 71.64 18.7 71.39 18.55C71.16 18.42 70.99 18.25 70.89 18.06C70.81 17.84 70.69 17.52 70.55 17.11C70.56 16.02 70.58 15.01 70.59 14.09C70.33 14.2 70.04 14.3 69.75 14.38L69.73 14.44C69.65 14.89 69.4 15.56 68.99 16.46C68.59 17.38 68.16 18.21 67.72 18.95C67.28 19.69 66.96 20.1 66.78 20.18C66.44 20.33 65.98 20.34 65.4 20.21C64.81 20.06 64.47 19.86 64.36 19.61C64.27 19.39 64.3 19.13 64.46 18.82C64.6 18.49 64.93 17.94 65.44 17.16C66.17 16.02 66.74 15.21 67.17 14.73L67.44 14.43C67.06 14.32 66.71 14.16 66.36 13.94C65.44 13.34 64.84 12.46 64.59 11.3C64.41 10.51 64.51 9.71 64.89 8.91C65.25 8.13 65.81 7.45 66.57 6.88C67.34 6.29 68.21 5.88 69.17 5.67C69.72 5.55 70.24 5.52 70.73 5.6C70.93 5.46 71.27 5.34 71.76 5.23C72.34 5.11 72.79 5.07 73.12 5.13Z" stroke="#FFFFFF" stroke-opacity="1.000000" stroke-width="0.000000"/>
</svg>
