<svg width="93.157959" height="85.802246" viewBox="0 0 93.158 85.8022" fill="none" xmlns="http://www.w3.org/2000/svg" xmlns:xlink="http://www.w3.org/1999/xlink">
	<desc>
			Created with Pixso.
	</desc>
	<defs/>
	<path id="Vector 17" d="M12.03 18.66C20.69 16.9 27.48 9.23 33.03 2.89C33.09 2.82 34 1.82 33.83 1.87C32.69 2.19 31.34 2.01 30.18 1.9C26.88 1.59 23.62 1.48 20.32 1.5" stroke="#BECFBC" stroke-opacity="1.000000" stroke-width="3.000000" stroke-linecap="round"/>
	<path id="Vector 18" d="M36.82 25.86C41.26 30.16 45.25 34.86 49.68 39.17C50.94 40.4 54.55 42.98 54.55 44.89" stroke="#BECFBC" stroke-opacity="1.000000" stroke-width="3.000000" stroke-linecap="round"/>
	<path id="Vector 19" d="M41.31 41.12C45.01 35.54 51.21 32.86 56.37 28.82" stroke="#BECFBC" stroke-opacity="1.000000" stroke-width="3.000000" stroke-linecap="round"/>
	<path id="Vector 20" d="M63.53 74.26C68.75 72.34 72.76 69.93 76.31 65.61C79.09 62.23 82.32 58.44 83.53 54.16C83.82 53.13 85.15 48.96 82.91 50.4C79.2 52.77 75.7 54.25 71.71 52.03" stroke="#BECFBC" stroke-opacity="1.000000" stroke-width="3.000000" stroke-linecap="round"/>
</svg>
