<svg width="53.709961" height="51.681396" viewBox="0 0 53.71 51.6814" fill="none" xmlns="http://www.w3.org/2000/svg" xmlns:xlink="http://www.w3.org/1999/xlink">
	<desc>
			Created with Pixso.
	</desc>
	<defs/>
	<path id="Vector" d="M40.32 3.86C41.32 5.51 42.31 7.17 43.3 8.83C44.76 11.29 45.55 13.55 45.43 16.47C45.43 16.51 45.41 16.53 45.37 16.53L26.95 16.53C26.93 16.53 26.91 16.52 26.89 16.5C26.88 16.49 26.87 16.47 26.87 16.45C26.76 13.88 27.37 11.49 28.71 9.28C29.79 7.49 30.87 5.7 31.94 3.93C31.96 3.91 31.96 3.88 31.96 3.86C31.95 3.83 31.94 3.81 31.92 3.79C31.12 3.11 30.84 2.34 31.09 1.49C31.42 0.36 32.32 0 33.4 0C35.32 -0.01 37.23 -0.01 39.14 0C41.27 0 42.13 2.55 40.34 3.79C40.31 3.81 40.31 3.83 40.32 3.86Z" fill="#FC8343" fill-opacity="1.000000" fill-rule="nonzero"/>
	<path id="Vector" d="M17.2 7.82C19.46 6 22.58 5.67 25.12 7.12C25.16 7.15 25.17 7.18 25.15 7.22C24.28 8.66 23.65 10.2 23.24 11.83C23.24 11.84 23.24 11.84 23.23 11.85C23.22 11.86 23.22 11.86 23.21 11.87C23.2 11.87 23.19 11.87 23.18 11.87C23.17 11.87 23.16 11.87 23.16 11.86L17.2 7.89C17.2 7.89 17.19 7.88 17.19 7.88C17.18 7.87 17.18 7.86 17.18 7.86C17.18 7.85 17.18 7.84 17.19 7.84C17.19 7.83 17.19 7.83 17.2 7.82Z" fill="#FC8343" fill-opacity="1.000000" fill-rule="nonzero"/>
	<path id="Vector" d="M22.53 16.53L6.26 16.53C6.25 16.53 6.25 16.52 6.24 16.52C6.23 16.52 6.23 16.51 6.23 16.5C6.22 16.5 6.22 16.49 6.22 16.48C6.22 16.48 6.22 16.47 6.22 16.46C7.18 14.52 8.16 12.58 9.14 10.64C9.92 9.09 11.27 8.91 12.66 9.83C15.98 12.04 19.28 14.24 22.56 16.43C22.65 16.49 22.64 16.53 22.53 16.53Z" fill="#FC8343" fill-opacity="1.000000" fill-rule="nonzero"/>
	<path id="Vector" d="M2.33 28.94C0.86 28.97 -0.01 28.08 0 26.67C0 25.48 0 24.3 0 23.11C-0.01 21.47 0.76 20.67 2.41 20.67C18.62 20.67 34.83 20.67 51.04 20.67C51.7 20.67 52.18 20.73 52.46 20.85C53.37 21.22 53.7 22 53.7 22.97C53.7 24.19 53.7 25.42 53.71 26.65C53.71 28.08 52.87 28.97 51.37 28.94C51.35 28.94 51.33 28.95 51.32 28.96C51.31 28.97 51.3 28.99 51.29 29C50.26 35.21 49.23 41.41 48.19 47.62C47.87 49.52 47.07 50.96 45.1 51.5C44.68 51.62 44.06 51.68 43.22 51.68C32.48 51.67 21.73 51.67 10.99 51.68C9.84 51.68 9.03 51.62 8.58 51.49C7.36 51.16 6.48 50.42 5.94 49.25C5.76 48.85 5.6 48.24 5.47 47.4C4.46 41.26 3.43 35.13 2.4 29.01C2.39 28.96 2.37 28.94 2.33 28.94ZM20.64 30.95C20.64 30.42 20.43 29.91 20.05 29.54C19.68 29.16 19.17 28.95 18.64 28.95L18.53 28.95C18 28.95 17.49 29.16 17.12 29.54C16.74 29.91 16.53 30.42 16.53 30.95L16.53 43.45C16.53 43.99 16.74 44.49 17.12 44.87C17.49 45.25 18 45.46 18.53 45.46L18.64 45.46C19.17 45.46 19.68 45.25 20.05 44.87C20.43 44.49 20.64 43.99 20.64 43.45L20.64 30.95ZM28.9 30.95C28.9 30.42 28.69 29.91 28.32 29.54C27.94 29.16 27.43 28.95 26.9 28.95L26.8 28.95C26.27 28.95 25.76 29.16 25.38 29.54C25.01 29.91 24.8 30.42 24.8 30.95L24.8 43.45C24.8 43.99 25.01 44.49 25.38 44.87C25.76 45.25 26.27 45.46 26.8 45.46L26.9 45.46C27.43 45.46 27.94 45.25 28.32 44.87C28.69 44.49 28.9 43.99 28.9 43.45L28.9 30.95ZM37.16 30.95C37.16 30.42 36.95 29.91 36.57 29.54C36.19 29.16 35.68 28.95 35.15 28.95L35.05 28.95C34.52 28.95 34.01 29.16 33.63 29.54C33.26 29.92 33.05 30.43 33.05 30.96L33.07 43.46C33.07 43.99 33.28 44.5 33.66 44.87C34.04 45.25 34.55 45.46 35.08 45.45L35.18 45.45C35.71 45.45 36.22 45.24 36.6 44.87C36.97 44.49 37.18 43.98 37.18 43.45L37.16 30.95Z" fill="#FC8343" fill-opacity="1.000000" fill-rule="nonzero"/>
</svg>
