<svg width="62.000000" height="62.000000" viewBox="0 0 62 62" fill="none" xmlns="http://www.w3.org/2000/svg" xmlns:xlink="http://www.w3.org/1999/xlink">
	<desc>
			Created with Pixso.
	</desc>
	<defs>
		<clipPath id="clip42_425">
			<rect id="image 28 1" rx="0.000000" width="61.000000" height="61.000000" transform="translate(0.500000 0.500000)" fill="white" fill-opacity="0"/>
		</clipPath>
	</defs>
	<rect id="image 28 1" rx="0.000000" width="61.000000" height="61.000000" transform="translate(0.500000 0.500000)" fill="#FFFFFF" fill-opacity="0"/>
	<g clip-path="url(#clip42_425)">
		<path id="Vector" d="M28.42 46.46C28.42 46.47 28.43 46.48 28.43 46.48C28.44 46.49 28.45 46.5 28.46 46.5L33.48 46.5C33.54 46.5 33.57 46.46 33.57 46.4C33.57 37.31 33.57 28.26 33.57 19.23C33.57 18.11 33.61 17.31 33.69 16.81C34.23 13.59 36.78 10.96 40.06 10.43C40.51 10.36 41.31 10.32 42.48 10.32C48.1 10.32 53.73 10.32 59.36 10.32C59.37 10.32 59.39 10.33 59.4 10.34C59.41 10.35 59.42 10.37 59.42 10.38C59.42 22.42 59.42 34.45 59.42 46.49C59.42 48.86 57.75 50.95 55.47 51.5C55.01 51.61 54.21 51.67 53.06 51.67C47.21 51.67 41.36 51.67 35.5 51.67C35.46 51.67 35.43 51.69 35.41 51.72C33.34 55.04 28.63 55.1 26.58 51.72C26.57 51.71 26.56 51.69 26.54 51.68C26.53 51.67 26.51 51.67 26.49 51.67L18.16 51.67C18.14 51.67 18.11 51.66 18.1 51.65C18.08 51.63 18.07 51.61 18.07 51.58L18.07 38.44C18.07 38.41 18.08 38.38 18.1 38.35C18.12 38.32 18.14 38.31 18.17 38.29C21.18 37.23 23.14 34.45 23.24 31.26C23.32 28.45 22.21 25.17 20.92 22.7C19.86 20.68 17.78 17.85 15.2 18.1C13.26 18.28 11.68 20.05 10.73 21.6C9.07 24.27 8.09 27.13 7.77 30.18C7.4 33.81 9.45 37.04 12.87 38.32C12.89 38.32 12.9 38.33 12.91 38.34C12.92 38.36 12.92 38.37 12.92 38.39L12.92 51.58C12.92 51.64 12.89 51.67 12.83 51.67C11.21 51.67 9.56 51.68 7.9 51.67C5 51.67 2.57 49.43 2.57 46.49C2.57 34.47 2.57 22.45 2.57 10.42C2.57 10.35 2.6 10.32 2.67 10.32C8.58 10.32 14.51 10.32 20.46 10.32C24.36 10.32 27.67 12.96 28.31 16.81C28.38 17.28 28.42 18.08 28.42 19.23C28.42 28.3 28.42 37.38 28.42 46.46ZM54.25 20.72C54.25 20.71 54.24 20.7 54.23 20.69C54.22 20.68 54.21 20.67 54.19 20.67L38.8 20.67C38.78 20.67 38.77 20.68 38.76 20.69C38.75 20.7 38.75 20.71 38.75 20.72L38.75 25.77C38.75 25.78 38.75 25.79 38.76 25.8C38.77 25.81 38.78 25.82 38.8 25.82L54.19 25.82C54.21 25.82 54.22 25.81 54.23 25.8C54.24 25.79 54.25 25.78 54.25 25.77L54.25 20.72ZM54.25 33.64C54.25 33.62 54.24 33.6 54.22 33.59C54.21 33.58 54.19 33.57 54.17 33.57L38.82 33.57C38.8 33.57 38.78 33.58 38.77 33.59C38.75 33.6 38.75 33.62 38.75 33.64L38.75 38.67C38.75 38.69 38.75 38.71 38.77 38.72C38.78 38.74 38.8 38.75 38.82 38.75L54.17 38.75C54.19 38.75 54.21 38.74 54.22 38.72C54.24 38.71 54.25 38.69 54.25 38.67L54.25 33.64Z" fill="#FC8343" fill-opacity="1.000000" fill-rule="nonzero"/>
	</g>
</svg>
