<svg width="45.430664" height="53.710205" viewBox="0 0 45.4307 53.7102" fill="none" xmlns="http://www.w3.org/2000/svg" xmlns:xlink="http://www.w3.org/1999/xlink">
	<desc>
			Created with Pixso.
	</desc>
	<defs/>
	<path id="Vector" d="M45.25 15.15C46.74 7.59 38.55 1.42 31.78 5.38C31.74 5.4 31.7 5.39 31.67 5.35C30.23 3.15 28.74 1.61 26.26 0.66C21.89 -1.01 17.72 0.59 14.93 4.18C14.91 4.21 14.89 4.22 14.86 4.22C14.84 4.22 14.81 4.22 14.79 4.2C12.42 2.35 9.7 1.53 6.73 2.41C-1.83 4.95 -2.44 16.7 6.11 19.9C6.15 19.92 6.16 19.95 6.16 19.99L6.16 24.37C6.16 24.41 6.16 24.44 6.14 24.48C5.11 26.22 4.13 28.6 4.11 30.64C4.1 31.64 4.1 33.49 4.11 36.18C4.12 37.27 4.18 38.07 4.29 38.58C4.71 40.44 5.98 42.57 7.91 43.18C7.94 43.18 7.96 43.2 7.98 43.22C8 43.24 8.02 43.26 8.03 43.28C10.1 48.52 14.34 52.57 20.06 53.48C27.9 54.74 34.48 50.52 37.38 43.26C37.39 43.22 37.42 43.2 37.46 43.18C39.5 42.54 40.82 40.24 41.16 38.26C41.24 37.8 41.28 37 41.28 35.85C41.28 34.4 41.28 32.95 41.28 31.51C41.29 29.34 40.73 27.59 39.26 25.95C39.24 25.92 39.22 25.89 39.22 25.86L39.22 22.08C39.22 22.03 39.25 22 39.29 21.98C42.32 20.81 44.62 18.34 45.25 15.15ZM35.78 39.56C35.39 39.79 34.87 39.87 34.4 39.99C34.36 40 34.33 40.03 34.32 40.07C34.14 40.53 33.97 40.99 33.79 41.45C32.12 45.71 28.63 49.04 23.94 49.51C17.63 50.15 12.83 45.92 11.11 40.12C11.1 40.08 11.08 40.05 11.06 40.03C11.03 40.01 11 39.99 10.97 39.98C10.46 39.86 9.92 39.77 9.5 39.49C8.25 38.66 8.24 37.62 8.23 36.07C8.22 35.46 8.22 34.85 8.23 34.24C8.28 31.81 11.85 31.46 13.59 31.34C17.15 31.09 20.73 31.14 24.27 30.7C25.87 30.49 27.65 30.05 28.86 28.96C28.89 28.93 28.92 28.92 28.97 28.92C29.15 28.92 29.33 28.91 29.51 28.91C30.44 28.89 31.39 28.87 32.25 29.2C34.83 30.16 37.14 32.45 37.16 35.33C37.16 35.48 37.17 35.62 37.17 35.76C37.2 37.25 37.22 38.71 35.78 39.56Z" fill="#FC8343" fill-opacity="1.000000" fill-rule="evenodd"/>
</svg>
