<svg width="40.937500" height="40.545410" viewBox="0 0 40.9375 40.5454" fill="none" xmlns="http://www.w3.org/2000/svg" xmlns:xlink="http://www.w3.org/1999/xlink">
	<desc>
			Created with Pixso.
	</desc>
	<defs/>
	<path id="Vector 43" d="M25.74 39.04C23.11 37.53 20.48 35.85 18.18 33.87C14.8 30.95 12.03 27.29 9.2 23.85C6.01 19.98 2.94 16.06 1.9 11.03C1.3 8.14 0.82 5.03 3.07 2.78C5.04 0.81 8.96 1.81 11.12 2.87C13.6 4.09 15.42 5.87 17.27 7.88C18.35 9.05 19.53 10.24 19.8 11.88C19.89 12.4 19.93 13.1 19.42 13.43C19.22 13.57 18.64 13.69 18.49 13.41C17.98 12.46 18.62 10.87 19.16 10.09C20.41 8.27 22.64 7.55 24.69 7.05C26.72 6.55 28.76 6.18 30.84 6.71C33.68 7.43 36.1 10.28 37.55 12.67C40.56 17.62 39.36 23.79 36.9 28.72" stroke="#F49563" stroke-opacity="1.000000" stroke-width="3.000000" stroke-linecap="round"/>
	<path id="Vector 43" d="M25.74 39.04C23.11 37.53 20.48 35.85 18.18 33.87C14.8 30.95 12.03 27.29 9.2 23.85C6.01 19.98 2.94 16.06 1.9 11.03C1.3 8.14 0.82 5.03 3.07 2.78C5.04 0.81 8.96 1.81 11.12 2.87C13.6 4.09 15.42 5.87 17.27 7.88C18.35 9.05 19.53 10.24 19.8 11.88C19.89 12.4 19.93 13.1 19.42 13.43C19.22 13.57 18.64 13.69 18.49 13.41C17.98 12.46 18.62 10.87 19.16 10.09C20.41 8.27 22.64 7.55 24.69 7.05C26.72 6.55 28.76 6.18 30.84 6.71C33.68 7.43 36.1 10.28 37.55 12.67C40.56 17.62 39.36 23.79 36.9 28.72" stroke="#C28DD1" stroke-opacity="1.000000" stroke-width="3.000000" stroke-linecap="round"/>
</svg>
