<svg width="40.374512" height="43.751465" viewBox="0 0 40.3745 43.7515" fill="none" xmlns="http://www.w3.org/2000/svg" xmlns:xlink="http://www.w3.org/1999/xlink">
	<desc>
			Created with Pixso.
	</desc>
	<defs/>
	<path id="Vector 305" d="M2.43 35.58C2.04 29 0.4 21.49 2.29 14.98C4.14 8.61 10.1 4.17 16.13 1.96C17.75 1.37 19.47 1.5 21.16 1.5C23.43 1.5 23.17 4.81 23.17 6.3C23.17 7.86 23.37 9.58 23.15 11.13C23.04 11.91 21.55 13.55 22.31 13.34C24.65 12.67 26.67 11.44 29.18 11.05C32.09 10.6 35.04 10.22 37.99 10.39C39.31 10.47 38.78 14.46 38.71 15.39C38.52 17.96 36.63 20.19 35.56 22.43C32.22 29.41 24.82 35.51 17.62 38.17C13.66 39.64 9.75 42.25 5.39 42.25" stroke="#F49563" stroke-opacity="1.000000" stroke-width="3.000000" stroke-linecap="round"/>
</svg>
