<svg width="46.779053" height="46.432617" viewBox="0 0 46.7791 46.4326" fill="none" xmlns="http://www.w3.org/2000/svg" xmlns:xlink="http://www.w3.org/1999/xlink">
	<desc>
			Created with Pixso.
	</desc>
	<defs/>
	<path id="Vector 16" d="M27 1.5C26.63 7.67 26.31 13.73 24.65 19.72C23.58 23.62 22.31 27.41 21.48 31.38C20.68 35.23 19.03 39.14 19.03 43.1C19.03 44.26 19.22 45.77 17.99 44.14C15.01 40.16 12.46 35.97 9.76 31.8C8.13 29.27 6.14 27.06 4.04 24.92C2.93 23.81 0.55 22.59 1.95 21.02C5.77 16.76 11.69 17.43 16.95 17.43C23.72 17.43 29.03 19.1 35.43 21.07C38.64 22.06 42.04 23.92 45.27 24.46" stroke="#C28DD1" stroke-opacity="1.000000" stroke-width="3.000000" stroke-linecap="round"/>
</svg>
