<svg width="126.324219" height="30.703857" viewBox="0 0 126.324 30.7039" fill="none" xmlns="http://www.w3.org/2000/svg" xmlns:xlink="http://www.w3.org/1999/xlink">
	<desc>
			Created with Pixso.
	</desc>
	<defs>
		<clipPath id="clip42_457">
			<rect id="Logo" rx="0.000000" width="125.447075" height="29.826576" transform="translate(0.438626 0.438626)" fill="white" fill-opacity="0"/>
		</clipPath>
	</defs>
	<rect id="Logo" rx="0.000000" width="125.447075" height="29.826576" transform="translate(0.438626 0.438626)" fill="#FFFFFF" fill-opacity="0"/>
	<g clip-path="url(#clip42_457)">
		<path id="Vector" d="M37.05 21.68L46.04 21.68L46.04 18.98L40.24 18.98L40.24 8.83L37.05 8.83L37.05 21.68Z" fill="#394149" fill-opacity="1.000000" fill-rule="nonzero"/>
		<path id="Vector" d="M51.36 19.88C50.08 19.88 49.41 18.77 49.41 17.09C49.41 15.42 50.08 14.29 51.36 14.29C52.64 14.29 53.33 15.42 53.33 17.09C53.33 18.77 52.64 19.88 51.36 19.88ZM51.38 21.96C54.36 21.96 56.3 19.86 56.3 17.09C56.3 14.33 54.36 12.22 51.38 12.22C48.42 12.22 46.43 14.33 46.43 17.09C46.43 19.86 48.42 21.96 51.38 21.96Z" fill="#394149" fill-opacity="1.000000" fill-rule="nonzero"/>
		<path id="Vector" d="M61.46 24.86C62.83 24.86 64.04 24.55 64.85 23.83C65.59 23.17 66.08 22.16 66.08 20.78L66.08 12.47L63.26 12.47L63.26 13.46L63.23 13.46C62.69 12.69 61.86 12.21 60.63 12.21C58.34 12.21 56.75 14.11 56.75 16.81C56.75 19.63 58.68 21.17 60.75 21.17C61.87 21.17 62.58 20.72 63.12 20.11L63.19 20.11L63.19 21.03C63.19 22.14 62.67 22.79 61.42 22.79C60.45 22.79 59.96 22.38 59.8 21.89L56.95 21.89C57.24 23.82 58.91 24.86 61.46 24.86ZM61.44 19C60.34 19 59.62 18.1 59.62 16.72C59.62 15.31 60.34 14.42 61.44 14.42C62.67 14.42 63.32 15.46 63.32 16.7C63.32 17.99 62.72 19 61.44 19Z" fill="#394149" fill-opacity="1.000000" fill-rule="nonzero"/>
		<path id="Vector" d="M71.87 19.88C70.59 19.88 69.92 18.77 69.92 17.09C69.92 15.42 70.59 14.29 71.87 14.29C73.15 14.29 73.83 15.42 73.83 17.09C73.83 18.77 73.15 19.88 71.87 19.88ZM71.88 21.96C74.86 21.96 76.81 19.86 76.81 17.09C76.81 14.33 74.86 12.22 71.88 12.22C68.93 12.22 66.94 14.33 66.94 17.09C66.94 19.86 68.93 21.96 71.88 21.96Z" fill="#394149" fill-opacity="1.000000" fill-rule="nonzero"/>
		<path id="Vector" d="M77.67 21.68L80.61 21.68L80.61 12.47L77.67 12.47L77.67 21.68ZM77.67 11.2L80.61 11.2L80.61 8.83L77.67 8.83L77.67 11.2Z" fill="#394149" fill-opacity="1.000000" fill-rule="nonzero"/>
		<path id="Vector" d="M81.89 24.71L84.83 24.71L84.83 20.72L84.87 20.72C85.44 21.5 86.29 21.96 87.48 21.96C89.9 21.96 91.51 20.06 91.51 17.08C91.51 14.31 90.01 12.21 87.56 12.21C86.29 12.21 85.39 12.76 84.76 13.59L84.7 13.59L84.7 12.47L81.89 12.47L81.89 24.71ZM86.72 19.7C85.46 19.7 84.74 18.68 84.74 17.18C84.74 15.69 85.39 14.56 86.67 14.56C87.93 14.56 88.53 15.6 88.53 17.18C88.53 18.75 87.84 19.7 86.72 19.7Z" fill="#394149" fill-opacity="1.000000" fill-rule="nonzero"/>
		<path id="Vector" d="M96.3 21.96C98.72 21.96 100.5 20.92 100.5 18.91C100.5 16.55 98.59 16.14 96.96 15.87C95.79 15.66 94.75 15.57 94.75 14.92C94.75 14.34 95.3 14.07 96.03 14.07C96.84 14.07 97.4 14.33 97.51 15.15L100.21 15.15C100.07 13.34 98.66 12.21 96.04 12.21C93.86 12.21 92.06 13.21 92.06 15.15C92.06 17.31 93.77 17.74 95.38 18.01C96.6 18.23 97.72 18.32 97.72 19.14C97.72 19.74 97.16 20.06 96.28 20.06C95.3 20.06 94.69 19.61 94.58 18.69L91.8 18.69C91.89 20.72 93.59 21.96 96.3 21.96Z" fill="#394149" fill-opacity="1.000000" fill-rule="nonzero"/>
		<path id="Vector" d="M104.5 21.95C105.78 21.95 106.59 21.44 107.26 20.54L107.31 20.54L107.31 21.68L110.13 21.68L110.13 12.47L107.19 12.47L107.19 17.61C107.19 18.71 106.57 19.47 105.56 19.47C104.62 19.47 104.17 18.91 104.17 17.9L104.17 12.47L101.25 12.47L101.25 18.51C101.25 20.56 102.37 21.95 104.5 21.95Z" fill="#394149" fill-opacity="1.000000" fill-rule="nonzero"/>
		<path id="Vector" d="M111.41 21.68L114.35 21.68L114.35 16.52C114.35 15.42 114.89 14.65 115.81 14.65C116.69 14.65 117.11 15.22 117.11 16.21L117.11 21.68L120.05 21.68L120.05 16.52C120.05 15.42 120.58 14.65 121.51 14.65C122.4 14.65 122.81 15.22 122.81 16.21L122.81 21.68L125.75 21.68L125.75 15.69C125.75 13.62 124.71 12.21 122.61 12.21C121.42 12.21 120.43 12.71 119.71 13.82L119.67 13.82C119.2 12.83 118.28 12.21 117.07 12.21C115.74 12.21 114.85 12.83 114.28 13.79L114.22 13.79L114.22 12.47L111.41 12.47L111.41 21.68Z" fill="#394149" fill-opacity="1.000000" fill-rule="nonzero"/>
		<path id="Vector" d="M19.1 1.48L16.14 0.69L13.65 9.95L11.4 1.59L8.45 2.38L10.88 11.41L4.82 5.38L2.66 7.54L9.3 14.15L1.03 11.94L0.23 14.89L9.27 17.3C9.17 16.86 9.11 16.39 9.11 15.92C9.11 12.55 11.85 9.82 15.24 9.82C18.62 9.82 21.36 12.55 21.36 15.92C21.36 16.39 21.31 16.85 21.2 17.29L29.42 19.48L30.21 16.54L21.14 14.12L29.41 11.91L28.62 8.97L19.54 11.39L25.6 5.36L23.43 3.2L16.88 9.72L19.1 1.48Z" fill="#394149" fill-opacity="1.000000" fill-rule="nonzero"/>
		<path id="Vector" d="M21.2 17.33C20.94 18.39 20.41 19.35 19.67 20.12L25.62 26.05L27.79 23.89L21.2 17.33Z" fill="#394149" fill-opacity="1.000000" fill-rule="nonzero"/>
		<path id="Vector" d="M19.61 20.18C18.87 20.94 17.93 21.5 16.88 21.8L19.04 29.84L22 29.05L19.61 20.18Z" fill="#394149" fill-opacity="1.000000" fill-rule="nonzero"/>
		<path id="Vector" d="M16.77 21.82C16.28 21.95 15.76 22.02 15.24 22.02C14.67 22.02 14.12 21.94 13.6 21.8L11.44 29.85L14.39 30.64L16.77 21.82Z" fill="#394149" fill-opacity="1.000000" fill-rule="nonzero"/>
		<path id="Vector" d="M13.5 21.77C12.46 21.46 11.54 20.89 10.81 20.13L4.85 26.07L7.01 28.23L13.5 21.77Z" fill="#394149" fill-opacity="1.000000" fill-rule="nonzero"/>
		<path id="Vector" d="M10.76 20.08C10.05 19.32 9.52 18.37 9.28 17.32L1.04 19.52L1.83 22.46L10.76 20.08Z" fill="#394149" fill-opacity="1.000000" fill-rule="nonzero"/>
	</g>
</svg>
