<svg width="115.796875" height="30.703857" viewBox="0 0 115.797 30.7039" fill="none" xmlns="http://www.w3.org/2000/svg" xmlns:xlink="http://www.w3.org/1999/xlink">
	<desc>
			Created with Pixso.
	</desc>
	<defs>
		<clipPath id="clip42_446">
			<rect id="Logo" rx="0.000000" width="114.920044" height="29.826576" transform="translate(0.438626 0.438626)" fill="white" fill-opacity="0"/>
		</clipPath>
	</defs>
	<rect id="Logo" rx="0.000000" width="114.920044" height="29.826576" transform="translate(0.438626 0.438626)" fill="#FFFFFF" fill-opacity="0"/>
	<g clip-path="url(#clip42_446)">
		<path id="Vector" d="M39.32 22.11C38.8 22.13 38.28 21.99 37.86 21.68C37.68 21.55 37.54 21.38 37.44 21.18C37.34 20.98 37.3 20.76 37.3 20.54L37.3 12.4C37.3 12.37 37.3 12.33 37.32 12.3C37.33 12.27 37.34 12.24 37.37 12.21C37.39 12.19 37.42 12.17 37.46 12.16C37.49 12.15 37.52 12.14 37.56 12.15L39.03 12.15C39.2 12.15 39.28 12.24 39.28 12.4L39.28 19.9C39.28 20.24 39.43 20.4 39.73 20.4C39.86 20.41 40 20.39 40.12 20.36C40.3 20.36 40.39 20.41 40.4 20.57L40.53 21.67C40.54 21.7 40.54 21.73 40.53 21.76C40.52 21.8 40.51 21.83 40.49 21.85C40.47 21.88 40.44 21.9 40.41 21.91C40.39 21.93 40.35 21.94 40.32 21.94C40 22.05 39.66 22.1 39.32 22.11Z" fill="#394149" fill-opacity="1.000000" fill-rule="nonzero"/>
		<path id="Vector" d="M47.61 21.17C46.87 21.78 45.94 22.11 44.98 22.11C44.02 22.11 43.09 21.78 42.35 21.17C41.7 20.51 41.33 19.62 41.33 18.7C41.33 17.77 41.7 16.89 42.35 16.23C43.09 15.62 44.02 15.29 44.98 15.29C45.94 15.29 46.87 15.62 47.61 16.23C48.25 16.89 48.6 17.77 48.6 18.69C48.6 19.61 48.25 20.5 47.61 21.16L47.61 21.17ZM43.74 20.01C44.08 20.32 44.53 20.49 44.99 20.49C45.45 20.49 45.9 20.32 46.24 20.01C46.55 19.65 46.73 19.19 46.73 18.72C46.73 18.25 46.55 17.79 46.24 17.43C45.9 17.12 45.45 16.95 44.99 16.95C44.53 16.95 44.08 17.12 43.74 17.43C43.42 17.79 43.25 18.25 43.25 18.72C43.25 19.19 43.42 19.65 43.74 20.01Z" fill="#394149" fill-opacity="1.000000" fill-rule="nonzero"/>
		<path id="Vector" d="M56.72 15.51C56.89 15.51 56.96 15.6 56.96 15.76L56.96 22.05C56.98 22.48 56.9 22.9 56.73 23.29C56.56 23.68 56.31 24.03 55.99 24.31C55.28 24.91 54.37 25.23 53.44 25.19C52.6 25.21 51.77 24.99 51.06 24.53C50.76 24.33 50.5 24.07 50.3 23.77C50.11 23.47 49.97 23.13 49.91 22.77C49.91 22.6 49.91 22.52 50.15 22.52L51.62 22.52C51.68 22.52 51.75 22.54 51.8 22.58C51.85 22.61 51.89 22.66 51.91 22.72C52.01 22.99 52.2 23.21 52.45 23.34C52.75 23.5 53.09 23.58 53.43 23.57C53.63 23.58 53.84 23.55 54.04 23.48C54.23 23.41 54.41 23.31 54.56 23.17C54.7 23.02 54.81 22.85 54.88 22.66C54.95 22.47 54.98 22.27 54.97 22.07L54.97 21.52C54.45 21.91 53.8 22.11 53.15 22.09C52.69 22.11 52.23 22.03 51.8 21.86C51.38 21.7 50.99 21.45 50.66 21.13C50.02 20.48 49.67 19.6 49.67 18.69C49.67 17.78 50.02 16.91 50.66 16.25C50.99 15.94 51.38 15.69 51.81 15.53C52.23 15.37 52.69 15.29 53.15 15.31C53.82 15.29 54.48 15.5 55.02 15.91L55.02 15.77C55.01 15.74 55.02 15.7 55.03 15.67C55.04 15.64 55.06 15.61 55.08 15.59C55.1 15.56 55.13 15.54 55.16 15.53C55.19 15.52 55.23 15.52 55.26 15.52L56.72 15.51ZM53.31 20.53C53.54 20.53 53.77 20.49 53.97 20.4C54.18 20.31 54.37 20.18 54.52 20.01C54.81 19.63 54.97 19.17 54.97 18.69C54.97 18.22 54.81 17.75 54.52 17.38C54.37 17.21 54.18 17.08 53.98 16.99C53.77 16.9 53.55 16.86 53.32 16.87C53.09 16.86 52.87 16.9 52.66 16.99C52.45 17.08 52.26 17.22 52.1 17.39C51.78 17.75 51.61 18.22 51.63 18.7C51.62 19.18 51.78 19.65 52.1 20.01C52.25 20.18 52.44 20.31 52.65 20.4C52.86 20.49 53.09 20.53 53.31 20.53Z" fill="#394149" fill-opacity="1.000000" fill-rule="nonzero"/>
		<path id="Vector" d="M64.53 21.17C63.79 21.78 62.86 22.11 61.9 22.11C60.94 22.11 60.01 21.78 59.27 21.17C58.63 20.5 58.28 19.62 58.28 18.7C58.28 17.78 58.63 16.89 59.27 16.23C60.01 15.62 60.94 15.29 61.9 15.29C62.86 15.29 63.79 15.62 64.53 16.23C65.17 16.89 65.53 17.77 65.53 18.69C65.53 19.61 65.17 20.5 64.53 21.16L64.53 21.17ZM60.65 20.01C60.82 20.17 61.01 20.29 61.23 20.38C61.45 20.46 61.68 20.5 61.91 20.49C62.14 20.5 62.37 20.46 62.59 20.38C62.8 20.29 63 20.17 63.17 20.01C63.47 19.65 63.64 19.19 63.64 18.72C63.64 18.25 63.47 17.79 63.17 17.43C63 17.27 62.8 17.15 62.59 17.06C62.37 16.98 62.14 16.94 61.91 16.95C61.68 16.94 61.45 16.98 61.23 17.06C61.01 17.15 60.82 17.27 60.65 17.43C60.34 17.79 60.17 18.25 60.17 18.72C60.17 19.19 60.34 19.65 60.65 20.01Z" fill="#394149" fill-opacity="1.000000" fill-rule="nonzero"/>
		<path id="Vector" d="M68.69 14.02C68.46 14.22 68.16 14.33 67.86 14.33C67.55 14.33 67.25 14.22 67.02 14.02C66.91 13.92 66.83 13.8 66.77 13.67C66.71 13.53 66.68 13.39 66.68 13.25C66.68 13.1 66.71 12.96 66.77 12.83C66.83 12.69 66.91 12.57 67.02 12.47C67.25 12.28 67.55 12.17 67.86 12.17C68.16 12.17 68.46 12.28 68.69 12.47C68.8 12.57 68.88 12.69 68.94 12.83C69 12.96 69.03 13.1 69.03 13.25C69.03 13.39 69 13.53 68.94 13.67C68.88 13.8 68.8 13.92 68.69 14.02ZM68.88 22.11C68.36 22.13 67.84 21.98 67.41 21.68C67.24 21.55 67.1 21.38 67 21.18C66.91 20.98 66.86 20.76 66.87 20.54L66.87 15.76C66.86 15.73 66.87 15.69 66.88 15.66C66.89 15.63 66.91 15.6 66.93 15.57C66.96 15.55 66.99 15.53 67.02 15.52C67.05 15.51 67.09 15.5 67.12 15.51L68.6 15.51C68.76 15.51 68.84 15.6 68.84 15.76L68.84 19.9C68.84 20.24 68.99 20.4 69.29 20.4C69.42 20.41 69.56 20.39 69.68 20.36C69.86 20.36 69.96 20.41 69.96 20.57L70.1 21.67C70.1 21.7 70.1 21.73 70.09 21.76C70.09 21.8 70.07 21.83 70.05 21.85C70.03 21.88 70.01 21.9 69.98 21.91C69.95 21.93 69.92 21.94 69.89 21.94C69.56 22.05 69.22 22.1 68.88 22.11Z" fill="#394149" fill-opacity="1.000000" fill-rule="nonzero"/>
		<path id="Vector" d="M75.52 15.3C75.98 15.28 76.44 15.35 76.87 15.52C77.3 15.68 77.69 15.93 78.03 16.25C78.65 16.91 78.99 17.79 78.99 18.7C78.99 19.61 78.65 20.48 78.03 21.15C77.7 21.47 77.3 21.72 76.87 21.88C76.44 22.05 75.98 22.12 75.52 22.11C74.86 22.12 74.22 21.92 73.68 21.54L73.68 24.7C73.68 24.87 73.6 24.95 73.43 24.95L71.96 24.95C71.92 24.95 71.89 24.95 71.86 24.94C71.82 24.93 71.79 24.91 71.77 24.89C71.74 24.87 71.73 24.84 71.72 24.8C71.71 24.77 71.7 24.74 71.71 24.7L71.71 17.51C71.72 17.44 71.71 17.37 71.69 17.3C71.67 17.23 71.63 17.17 71.58 17.12C71.53 17.07 71.47 17.03 71.4 17.01C71.33 16.99 71.26 16.98 71.19 16.99L70.9 16.99C70.71 16.99 70.61 16.92 70.61 16.78L70.61 15.75C70.61 15.68 70.63 15.62 70.66 15.57C70.7 15.51 70.75 15.47 70.82 15.46C71.12 15.35 71.44 15.29 71.76 15.3C72.08 15.27 72.41 15.34 72.69 15.49C72.97 15.65 73.2 15.89 73.35 16.18C73.63 15.89 73.97 15.66 74.34 15.51C74.72 15.36 75.12 15.29 75.52 15.3ZM74.15 20.01C74.31 20.17 74.49 20.3 74.7 20.39C74.91 20.48 75.13 20.53 75.36 20.53C75.59 20.53 75.81 20.48 76.02 20.39C76.23 20.3 76.41 20.17 76.57 20.01C76.9 19.64 77.07 19.16 77.05 18.67C77.08 18.17 76.9 17.69 76.57 17.32C76.41 17.16 76.23 17.03 76.02 16.94C75.81 16.85 75.59 16.81 75.36 16.81C75.13 16.81 74.91 16.85 74.7 16.94C74.49 17.03 74.31 17.16 74.15 17.32C73.83 17.7 73.66 18.18 73.68 18.67C73.67 19.16 73.83 19.64 74.15 20.01Z" fill="#394149" fill-opacity="1.000000" fill-rule="nonzero"/>
		<path id="Vector" d="M83.13 22.11C82.34 22.14 81.56 21.95 80.88 21.56C80.6 21.4 80.37 21.17 80.19 20.9C80.02 20.63 79.9 20.33 79.86 20.01C79.86 19.83 79.92 19.75 80.12 19.75L81.4 19.75C81.47 19.75 81.53 19.77 81.58 19.8C81.63 19.84 81.67 19.88 81.69 19.94C81.88 20.41 82.36 20.65 83.13 20.65C83.4 20.66 83.67 20.61 83.91 20.49C84 20.45 84.07 20.39 84.12 20.32C84.17 20.24 84.21 20.15 84.21 20.06C84.21 19.83 84.07 19.68 83.79 19.57C83.46 19.46 83.11 19.39 82.76 19.35C82.35 19.3 81.94 19.23 81.54 19.13C81.14 19.04 80.79 18.84 80.51 18.54C80.35 18.34 80.23 18.11 80.16 17.87C80.09 17.62 80.07 17.36 80.11 17.1C80.14 16.85 80.23 16.6 80.36 16.38C80.5 16.16 80.68 15.97 80.89 15.82C81.52 15.42 82.26 15.23 83.01 15.26C83.73 15.24 84.45 15.42 85.08 15.78C85.33 15.92 85.55 16.12 85.72 16.36C85.88 16.6 86 16.87 86.04 17.16C86.04 17.33 85.97 17.42 85.81 17.42L84.51 17.42C84.46 17.42 84.4 17.41 84.35 17.38C84.31 17.35 84.27 17.31 84.25 17.26C84.16 17.06 84 16.89 83.79 16.8C83.56 16.68 83.3 16.62 83.04 16.62C82.78 16.61 82.52 16.66 82.29 16.77C82.21 16.8 82.14 16.86 82.09 16.93C82.04 17 82.01 17.09 82.01 17.18C82.02 17.3 82.06 17.41 82.13 17.5C82.21 17.6 82.31 17.66 82.43 17.69C82.77 17.82 83.12 17.91 83.47 17.96C83.88 18.01 84.29 18.09 84.69 18.18C85.09 18.27 85.44 18.48 85.72 18.77C85.87 18.93 85.98 19.12 86.06 19.33C86.13 19.54 86.16 19.76 86.15 19.97C86.16 20.28 86.09 20.58 85.94 20.84C85.8 21.11 85.59 21.34 85.33 21.5C84.68 21.92 83.91 22.13 83.13 22.11Z" fill="#394149" fill-opacity="1.000000" fill-rule="nonzero"/>
		<path id="Vector" d="M95.42 21.67C95.43 21.7 95.43 21.73 95.42 21.76C95.41 21.79 95.4 21.82 95.38 21.85C95.36 21.87 95.34 21.89 95.31 21.91C95.28 21.92 95.25 21.93 95.22 21.94C94.9 22.04 94.57 22.1 94.23 22.11C93.9 22.14 93.56 22.09 93.25 21.95C92.94 21.82 92.68 21.61 92.48 21.34C91.86 21.88 91.05 22.15 90.24 22.11C89.86 22.12 89.48 22.06 89.13 21.92C88.77 21.79 88.45 21.58 88.19 21.31C87.92 21.03 87.71 20.69 87.58 20.33C87.45 19.97 87.39 19.58 87.4 19.19L87.4 15.76C87.4 15.6 87.48 15.51 87.65 15.51L89.12 15.51C89.29 15.51 89.37 15.6 89.37 15.76L89.37 18.93C89.35 19.32 89.49 19.71 89.75 20.01C89.88 20.15 90.03 20.25 90.21 20.32C90.38 20.4 90.57 20.43 90.76 20.42C90.95 20.43 91.14 20.4 91.32 20.33C91.5 20.27 91.67 20.17 91.81 20.04C91.94 19.9 92.05 19.73 92.11 19.55C92.18 19.37 92.21 19.18 92.2 18.99L92.2 15.76C92.2 15.6 92.28 15.51 92.45 15.51L93.94 15.51C94.11 15.51 94.19 15.6 94.19 15.76L94.19 19.9C94.19 20.24 94.33 20.4 94.62 20.4C94.76 20.41 94.9 20.39 95.03 20.36C95.06 20.35 95.1 20.35 95.13 20.36C95.16 20.36 95.2 20.38 95.22 20.4C95.25 20.42 95.27 20.44 95.29 20.47C95.31 20.5 95.32 20.54 95.32 20.57L95.42 21.67Z" fill="#394149" fill-opacity="1.000000" fill-rule="nonzero"/>
		<path id="Vector" d="M109.36 21.67C109.37 21.7 109.37 21.73 109.37 21.76C109.36 21.79 109.35 21.82 109.33 21.85C109.31 21.88 109.28 21.9 109.25 21.91C109.22 21.93 109.19 21.94 109.16 21.94C108.83 22.05 108.49 22.1 108.15 22.11C107.63 22.13 107.11 21.98 106.69 21.68C106.5 21.56 106.35 21.38 106.25 21.18C106.15 20.98 106.1 20.76 106.1 20.54L106.1 18.47C106.12 18.08 105.99 17.7 105.73 17.39C105.61 17.26 105.46 17.15 105.29 17.08C105.12 17.01 104.93 16.97 104.75 16.98C104.58 16.98 104.42 17.01 104.27 17.07C104.11 17.14 103.98 17.24 103.87 17.37C103.64 17.66 103.52 18.03 103.54 18.4L103.54 21.64C103.54 21.81 103.46 21.9 103.29 21.9L101.81 21.9C101.77 21.9 101.74 21.9 101.71 21.88C101.67 21.87 101.64 21.85 101.62 21.83C101.6 21.81 101.58 21.78 101.57 21.74C101.55 21.71 101.55 21.68 101.56 21.64L101.56 18.47C101.57 18.08 101.45 17.7 101.21 17.39C101.11 17.27 100.97 17.16 100.82 17.09C100.67 17.02 100.5 16.98 100.34 16.98C100.16 16.98 99.98 17.01 99.81 17.07C99.64 17.14 99.5 17.24 99.37 17.37C99.12 17.65 98.99 18.03 99.01 18.4L99.01 21.64C99.01 21.68 99.01 21.71 99 21.74C98.99 21.78 98.97 21.81 98.95 21.83C98.92 21.85 98.89 21.87 98.86 21.88C98.83 21.9 98.79 21.9 98.76 21.9L97.33 21.9C97.16 21.9 97.08 21.81 97.08 21.64L97.08 17.51C97.09 17.44 97.08 17.37 97.06 17.3C97.04 17.23 97 17.17 96.95 17.12C96.9 17.07 96.84 17.03 96.77 17.01C96.71 16.99 96.63 16.98 96.56 16.99L96.27 16.99C96.08 16.99 95.98 16.92 95.98 16.78L95.98 15.75C95.98 15.68 96 15.62 96.03 15.57C96.07 15.51 96.12 15.47 96.19 15.46C96.49 15.35 96.81 15.29 97.13 15.3C97.44 15.27 97.75 15.33 98.03 15.48C98.31 15.62 98.54 15.84 98.69 16.11C98.99 15.83 99.34 15.61 99.72 15.47C100.11 15.33 100.52 15.27 100.92 15.3C101.32 15.28 101.71 15.35 102.07 15.51C102.44 15.68 102.75 15.92 103 16.23C103.29 15.91 103.65 15.67 104.05 15.5C104.44 15.34 104.87 15.27 105.3 15.3C105.68 15.28 106.07 15.34 106.42 15.48C106.78 15.62 107.11 15.83 107.38 16.1C107.65 16.38 107.85 16.71 107.99 17.07C108.12 17.44 108.18 17.82 108.16 18.21L108.16 19.9C108.16 20.24 108.31 20.4 108.59 20.4C108.73 20.41 108.86 20.4 108.99 20.36C109.18 20.36 109.27 20.43 109.28 20.57L109.36 21.67Z" fill="#394149" fill-opacity="1.000000" fill-rule="nonzero"/>
		<path id="Vector" d="M6.5 14.37C7.14 11.77 8.64 9.46 10.75 7.81C12.87 6.16 15.47 5.26 18.15 5.26C20.83 5.26 23.43 6.16 25.55 7.81C27.66 9.46 29.16 11.77 29.8 14.37L28.75 14.37C26.98 14.34 25.24 14.87 23.78 15.89C23.69 15.95 23.61 16 23.51 16.05L23.39 16.05C23.3 16 23.21 15.95 23.13 15.89C21.66 14.9 19.92 14.37 18.15 14.37C16.38 14.37 14.64 14.9 13.17 15.89C13.09 15.95 13 16 12.91 16.05L12.79 16.05C12.69 16 12.61 15.95 12.52 15.89C11.06 14.87 9.32 14.34 7.55 14.37L6.5 14.37ZM26.86 19.87C27.4 19.45 28.07 19.23 28.75 19.25L30.16 19.25L30.16 16.43L28.75 16.43C27.54 16.42 26.37 16.79 25.39 17.5C24.84 17.9 24.18 18.12 23.5 18.12C22.81 18.12 22.15 17.9 21.6 17.5C20.6 16.8 19.41 16.43 18.19 16.43C16.97 16.43 15.79 16.8 14.79 17.5C14.24 17.9 13.57 18.12 12.89 18.12C12.21 18.12 11.54 17.9 11 17.5C10.01 16.78 8.81 16.41 7.59 16.43L6.14 16.43L6.14 19.25L7.55 19.25C8.23 19.23 8.9 19.45 9.44 19.87C10.44 20.57 11.63 20.94 12.85 20.94C14.06 20.94 15.25 20.57 16.25 19.87C16.79 19.45 17.46 19.23 18.15 19.25C18.83 19.23 19.5 19.45 20.04 19.87C21.04 20.57 22.23 20.94 23.45 20.94C24.67 20.94 25.86 20.57 26.86 19.87ZM26.86 24.9C27.4 24.48 28.07 24.26 28.75 24.28L30.16 24.28L30.16 21.47L28.75 21.47C27.54 21.45 26.37 21.83 25.39 22.54C24.84 22.94 24.18 23.16 23.5 23.16C22.81 23.16 22.15 22.94 21.6 22.54C20.6 21.84 19.41 21.47 18.19 21.47C16.97 21.47 15.79 21.84 14.79 22.54C14.24 22.94 13.57 23.16 12.89 23.16C12.21 23.16 11.54 22.94 11 22.54C10.01 21.82 8.81 21.44 7.59 21.47L6.14 21.47L6.14 24.28L7.55 24.28C8.23 24.26 8.9 24.48 9.44 24.9C10.44 25.6 11.63 25.97 12.85 25.97C14.06 25.97 15.25 25.6 16.25 24.9C16.79 24.48 17.46 24.26 18.15 24.28C18.83 24.26 19.5 24.48 20.04 24.9C21.04 25.6 22.23 25.97 23.45 25.97C24.67 25.97 25.86 25.6 26.86 24.9Z" fill="#394149" fill-opacity="1.000000" fill-rule="nonzero"/>
	</g>
</svg>
