<svg width="136.003906" height="30.119385" viewBox="0 0 136.004 30.1194" fill="none" xmlns="http://www.w3.org/2000/svg" xmlns:xlink="http://www.w3.org/1999/xlink">
	<desc>
			Created with Pixso.
	</desc>
	<defs/>
	<path id="Vector 32" d="M133.83 3.87Q133.54 4.07 133.18 4.04Q132.77 4 132.5 3.68Q132.24 3.36 132.28 2.95Q132.31 2.63 132.51 2.4L126.95 1.99C126.39 1.95 125.98 1.48 126.02 0.92C126.06 0.36 126.53 -0.04 127.09 0L135.07 0.58L135.07 0.58L135.07 0.58Q135.31 0.59 135.51 0.71C135.7 0.82 135.85 0.99 135.93 1.2Q136.01 1.39 136 1.62L136 1.62Q136 1.63 136 1.65L136 1.65L135.42 9.62C135.38 10.18 134.91 10.59 134.35 10.55C133.79 10.51 133.38 10.04 133.42 9.48L133.83 3.87ZM129.27 4.97Q127.63 6.23 126.01 7.38Q125.67 7.62 125.6 8.03Q125.53 8.44 125.77 8.78Q126.01 9.12 126.42 9.18Q126.83 9.25 127.17 9.02Q128.82 7.84 130.5 6.55Q130.82 6.3 130.88 5.89Q130.93 5.48 130.68 5.15Q130.42 4.82 130.01 4.77Q129.6 4.71 129.27 4.97ZM122.55 9.71Q120.72 10.88 118.92 11.9Q118.56 12.1 118.45 12.5Q118.34 12.9 118.54 13.26Q118.74 13.62 119.14 13.73Q119.54 13.84 119.9 13.64Q121.76 12.6 123.63 11.4Q123.97 11.18 124.06 10.77Q124.15 10.37 123.93 10.02Q123.71 9.67 123.3 9.58Q122.9 9.49 122.55 9.71ZM49.95 11.63Q47.77 11.43 45.67 11.37Q45.26 11.36 44.96 11.65Q44.66 11.93 44.65 12.35Q44.64 12.76 44.92 13.06Q45.21 13.36 45.62 13.37Q47.66 13.42 49.77 13.62Q50.18 13.66 50.5 13.39Q50.82 13.13 50.86 12.71Q50.89 12.3 50.63 11.98Q50.36 11.66 49.95 11.63ZM41.39 11.41Q39.24 11.51 37.12 11.77Q36.71 11.82 36.46 12.15Q36.2 12.47 36.25 12.89Q36.3 13.3 36.63 13.55Q36.95 13.81 37.36 13.76Q39.41 13.51 41.48 13.41Q41.89 13.39 42.17 13.09Q42.45 12.78 42.43 12.37Q42.41 11.95 42.11 11.67Q41.8 11.39 41.39 11.41ZM58.42 12.87Q56.21 12.44 54.19 12.14Q53.78 12.08 53.44 12.32Q53.11 12.57 53.05 12.98Q52.99 13.39 53.24 13.72Q53.48 14.06 53.89 14.12Q55.87 14.41 58.04 14.83Q58.44 14.91 58.79 14.68Q59.13 14.45 59.21 14.04Q59.29 13.64 59.06 13.29Q58.83 12.95 58.42 12.87ZM32.89 12.45Q30.8 12.87 28.71 13.44Q28.31 13.55 28.11 13.91Q27.9 14.27 28.01 14.67Q28.12 15.07 28.48 15.28Q28.84 15.48 29.24 15.37Q31.26 14.81 33.28 14.41Q33.68 14.33 33.91 13.99Q34.14 13.64 34.06 13.24Q33.98 12.83 33.64 12.6Q33.29 12.37 32.89 12.45ZM115.4 13.75Q113.43 14.71 111.48 15.49Q111.09 15.65 110.93 16.03Q110.77 16.41 110.92 16.8Q111.08 17.18 111.46 17.34Q111.84 17.5 112.22 17.35Q114.24 16.54 116.28 15.54Q116.65 15.36 116.79 14.97Q116.92 14.58 116.74 14.21Q116.56 13.83 116.17 13.7Q115.77 13.57 115.4 13.75ZM66.7 14.73Q64.36 14.16 62.59 13.76Q62.19 13.66 61.84 13.88Q61.49 14.1 61.4 14.51Q61.3 14.91 61.53 15.26Q61.75 15.61 62.15 15.71Q63.9 16.1 66.23 16.67Q66.63 16.77 66.98 16.56Q67.34 16.34 67.44 15.94Q67.53 15.54 67.32 15.18Q67.1 14.83 66.7 14.73ZM24.66 14.71Q22.62 15.43 20.57 16.3Q20.19 16.46 20.03 16.84Q19.88 17.23 20.04 17.61Q20.2 17.99 20.59 18.14Q20.97 18.3 21.35 18.14Q23.34 17.29 25.32 16.6Q25.71 16.46 25.89 16.09Q26.07 15.72 25.93 15.33Q25.8 14.93 25.42 14.76Q25.05 14.58 24.66 14.71ZM74.89 16.73L70.78 15.74Q70.37 15.64 70.02 15.86Q69.67 16.07 69.57 16.48Q69.47 16.88 69.69 17.23Q69.9 17.59 70.31 17.68L74.42 18.68Q74.82 18.77 75.17 18.56Q75.53 18.34 75.63 17.94Q75.72 17.54 75.51 17.18Q75.29 16.83 74.89 16.73ZM107.66 16.87Q105.64 17.51 103.62 17.97Q103.22 18.06 103 18.41Q102.78 18.76 102.87 19.16Q102.96 19.57 103.31 19.79Q103.66 20.01 104.07 19.92Q106.17 19.44 108.27 18.77Q108.66 18.65 108.85 18.28Q109.04 17.91 108.92 17.52Q108.79 17.12 108.42 16.93Q108.06 16.74 107.66 16.87ZM83.09 18.37Q81.14 18.07 78.97 17.63Q78.57 17.54 78.22 17.77Q77.88 18 77.8 18.41Q77.71 18.81 77.94 19.16Q78.17 19.51 78.58 19.59Q80.79 20.03 82.78 20.35Q83.19 20.41 83.52 20.17Q83.86 19.92 83.92 19.51Q83.98 19.11 83.74 18.77Q83.5 18.44 83.09 18.37ZM16.82 18.01Q14.9 18.96 12.96 20.04Q12.59 20.24 12.48 20.64Q12.37 21.04 12.57 21.4Q12.77 21.76 13.17 21.87Q13.57 21.99 13.93 21.78Q15.82 20.73 17.7 19.81Q18.07 19.63 18.2 19.24Q18.34 18.84 18.16 18.47Q17.97 18.1 17.58 17.97Q17.19 17.83 16.82 18.01ZM99.61 18.71Q97.56 18.99 95.46 19.11Q95.05 19.13 94.77 19.44Q94.5 19.74 94.52 20.16Q94.54 20.57 94.85 20.85Q95.16 21.12 95.57 21.1Q97.75 20.99 99.89 20.69Q100.3 20.63 100.55 20.3Q100.8 19.97 100.74 19.56Q100.68 19.15 100.35 18.9Q100.02 18.65 99.61 18.71ZM91.37 19.16Q89.34 19.11 87.2 18.9Q86.79 18.86 86.47 19.12Q86.15 19.39 86.11 19.8Q86.07 20.21 86.33 20.53Q86.6 20.85 87.01 20.89Q89.21 21.1 91.32 21.16Q91.73 21.17 92.03 20.88Q92.33 20.6 92.34 20.19Q92.35 19.77 92.07 19.47Q91.78 19.17 91.37 19.16ZM9.3 22.18Q7.56 23.26 5.81 24.44Q5.46 24.67 5.39 25.08Q5.31 25.48 5.54 25.83Q5.77 26.17 6.18 26.25Q6.58 26.33 6.93 26.1Q8.65 24.94 10.35 23.89Q10.7 23.67 10.8 23.27Q10.89 22.86 10.68 22.51Q10.46 22.16 10.05 22.06Q9.65 21.97 9.3 22.18ZM2.22 26.95Q1.31 27.62 0.4 28.31C-0.05 28.65 -0.14 29.27 0.2 29.71C0.54 30.16 1.16 30.25 1.6 29.91Q2.51 29.22 3.4 28.57Q3.74 28.33 3.8 27.92Q3.87 27.51 3.62 27.17Q3.38 26.84 2.97 26.77Q2.56 26.71 2.22 26.95Z" fill="#F5A276" fill-opacity="1.000000" fill-rule="evenodd"/>
	<path id="Vector 32" d="M133.83 3.87Q133.54 4.07 133.18 4.04Q132.77 4 132.5 3.68Q132.24 3.36 132.28 2.95Q132.31 2.63 132.51 2.4L126.95 1.99C126.39 1.95 125.98 1.48 126.02 0.92C126.06 0.36 126.53 -0.04 127.09 0L135.07 0.58L135.07 0.58L135.07 0.58Q135.31 0.59 135.51 0.71C135.7 0.82 135.85 0.99 135.93 1.2Q136.01 1.39 136 1.62L136 1.62Q136 1.63 136 1.65L136 1.65L135.42 9.62C135.38 10.18 134.91 10.59 134.35 10.55C133.79 10.51 133.38 10.04 133.42 9.48L133.83 3.87ZM129.27 4.97Q127.63 6.23 126.01 7.38Q125.67 7.62 125.6 8.03Q125.53 8.44 125.77 8.78Q126.01 9.12 126.42 9.18Q126.83 9.25 127.17 9.02Q128.82 7.84 130.5 6.55Q130.82 6.3 130.88 5.89Q130.93 5.48 130.68 5.15Q130.42 4.82 130.01 4.77Q129.6 4.71 129.27 4.97ZM122.55 9.71Q120.72 10.88 118.92 11.9Q118.56 12.1 118.45 12.5Q118.34 12.9 118.54 13.26Q118.74 13.62 119.14 13.73Q119.54 13.84 119.9 13.64Q121.76 12.6 123.63 11.4Q123.97 11.18 124.06 10.77Q124.15 10.37 123.93 10.02Q123.71 9.67 123.3 9.58Q122.9 9.49 122.55 9.71ZM49.95 11.63Q47.77 11.43 45.67 11.37Q45.26 11.36 44.96 11.65Q44.66 11.93 44.65 12.35Q44.64 12.76 44.92 13.06Q45.21 13.36 45.62 13.37Q47.66 13.42 49.77 13.62Q50.18 13.66 50.5 13.39Q50.82 13.13 50.86 12.71Q50.89 12.3 50.63 11.98Q50.36 11.66 49.95 11.63ZM41.39 11.41Q39.24 11.51 37.12 11.77Q36.71 11.82 36.46 12.15Q36.2 12.47 36.25 12.89Q36.3 13.3 36.63 13.55Q36.95 13.81 37.36 13.76Q39.41 13.51 41.48 13.41Q41.89 13.39 42.17 13.09Q42.45 12.78 42.43 12.37Q42.41 11.95 42.11 11.67Q41.8 11.39 41.39 11.41ZM58.42 12.87Q56.21 12.44 54.19 12.14Q53.78 12.08 53.44 12.32Q53.11 12.57 53.05 12.98Q52.99 13.39 53.24 13.72Q53.48 14.06 53.89 14.12Q55.87 14.41 58.04 14.83Q58.44 14.91 58.79 14.68Q59.13 14.45 59.21 14.04Q59.29 13.64 59.06 13.29Q58.83 12.95 58.42 12.87ZM32.89 12.45Q30.8 12.87 28.71 13.44Q28.31 13.55 28.11 13.91Q27.9 14.27 28.01 14.67Q28.12 15.07 28.48 15.28Q28.84 15.48 29.24 15.37Q31.26 14.81 33.28 14.41Q33.68 14.33 33.91 13.99Q34.14 13.64 34.06 13.24Q33.98 12.83 33.64 12.6Q33.29 12.37 32.89 12.45ZM115.4 13.75Q113.43 14.71 111.48 15.49Q111.09 15.65 110.93 16.03Q110.77 16.41 110.92 16.8Q111.08 17.18 111.46 17.34Q111.84 17.5 112.22 17.35Q114.24 16.54 116.28 15.54Q116.65 15.36 116.79 14.97Q116.92 14.58 116.74 14.21Q116.56 13.83 116.17 13.7Q115.77 13.57 115.4 13.75ZM66.7 14.73Q64.36 14.16 62.59 13.76Q62.19 13.66 61.84 13.88Q61.49 14.1 61.4 14.51Q61.3 14.91 61.53 15.26Q61.75 15.61 62.15 15.71Q63.9 16.1 66.23 16.67Q66.63 16.77 66.98 16.56Q67.34 16.34 67.44 15.94Q67.53 15.54 67.32 15.18Q67.1 14.83 66.7 14.73ZM24.66 14.71Q22.62 15.43 20.57 16.3Q20.19 16.46 20.03 16.84Q19.88 17.23 20.04 17.61Q20.2 17.99 20.59 18.14Q20.97 18.3 21.35 18.14Q23.34 17.29 25.32 16.6Q25.71 16.46 25.89 16.09Q26.07 15.72 25.93 15.33Q25.8 14.93 25.42 14.76Q25.05 14.58 24.66 14.71ZM74.89 16.73L70.78 15.74Q70.37 15.64 70.02 15.86Q69.67 16.07 69.57 16.48Q69.47 16.88 69.69 17.23Q69.9 17.59 70.31 17.68L74.42 18.68Q74.82 18.77 75.17 18.56Q75.53 18.34 75.63 17.94Q75.72 17.54 75.51 17.18Q75.29 16.83 74.89 16.73ZM107.66 16.87Q105.64 17.51 103.62 17.97Q103.22 18.06 103 18.41Q102.78 18.76 102.87 19.16Q102.96 19.57 103.31 19.79Q103.66 20.01 104.07 19.92Q106.17 19.44 108.27 18.77Q108.66 18.65 108.85 18.28Q109.04 17.91 108.92 17.52Q108.79 17.12 108.42 16.93Q108.06 16.74 107.66 16.87ZM83.09 18.37Q81.14 18.07 78.97 17.63Q78.57 17.54 78.22 17.77Q77.88 18 77.8 18.41Q77.71 18.81 77.94 19.16Q78.17 19.51 78.58 19.59Q80.79 20.03 82.78 20.35Q83.19 20.41 83.52 20.17Q83.86 19.92 83.92 19.51Q83.98 19.11 83.74 18.77Q83.5 18.44 83.09 18.37ZM16.82 18.01Q14.9 18.96 12.96 20.04Q12.59 20.24 12.48 20.64Q12.37 21.04 12.57 21.4Q12.77 21.76 13.17 21.87Q13.57 21.99 13.93 21.78Q15.82 20.73 17.7 19.81Q18.07 19.63 18.2 19.24Q18.34 18.84 18.16 18.47Q17.97 18.1 17.58 17.97Q17.19 17.83 16.82 18.01ZM99.61 18.71Q97.56 18.99 95.46 19.11Q95.05 19.13 94.77 19.44Q94.5 19.74 94.52 20.16Q94.54 20.57 94.85 20.85Q95.16 21.12 95.57 21.1Q97.75 20.99 99.89 20.69Q100.3 20.63 100.55 20.3Q100.8 19.97 100.74 19.56Q100.68 19.15 100.35 18.9Q100.02 18.65 99.61 18.71ZM91.37 19.16Q89.34 19.11 87.2 18.9Q86.79 18.86 86.47 19.12Q86.15 19.39 86.11 19.8Q86.07 20.21 86.33 20.53Q86.6 20.85 87.01 20.89Q89.21 21.1 91.32 21.16Q91.73 21.17 92.03 20.88Q92.33 20.6 92.34 20.19Q92.35 19.77 92.07 19.47Q91.78 19.17 91.37 19.16ZM9.3 22.18Q7.56 23.26 5.81 24.44Q5.46 24.67 5.39 25.08Q5.31 25.48 5.54 25.83Q5.77 26.17 6.18 26.25Q6.58 26.33 6.93 26.1Q8.65 24.94 10.35 23.89Q10.7 23.67 10.8 23.27Q10.89 22.86 10.68 22.51Q10.46 22.16 10.05 22.06Q9.65 21.97 9.3 22.18ZM2.22 26.95Q1.31 27.62 0.4 28.31C-0.05 28.65 -0.14 29.27 0.2 29.71C0.54 30.16 1.16 30.25 1.6 29.91Q2.51 29.22 3.4 28.57Q3.74 28.33 3.8 27.92Q3.87 27.51 3.62 27.17Q3.38 26.84 2.97 26.77Q2.56 26.71 2.22 26.95Z" fill="#C28DD1" fill-opacity="1.000000" fill-rule="evenodd"/>
</svg>
