<svg width="35.004883" height="26.996826" viewBox="0 0 35.0049 26.9968" fill="none" xmlns="http://www.w3.org/2000/svg" xmlns:xlink="http://www.w3.org/1999/xlink">
	<desc>
			Created with Pixso.
	</desc>
	<defs/>
	<path id="Vector 49" d="M33.5 23.17C30.79 23.79 28.65 25.41 25.71 25.46C24.4 25.48 23.03 25.56 21.73 25.42C19.79 25.23 18.09 23.07 17.09 21.59C15.09 18.61 13.21 14.19 13.13 10.56C13.07 7.62 17.91 6.55 20.37 7.08C22.71 7.58 22.53 10.5 22.43 12.34C22.24 15.73 18.9 17.45 15.91 18.26C5.13 21.2 3.93 8.66 1.5 1.5" stroke="#F49563" stroke-opacity="1.000000" stroke-width="3.000000" stroke-linecap="round"/>
	<path id="Vector 49" d="M33.5 23.17C30.79 23.79 28.65 25.41 25.71 25.46C24.4 25.48 23.03 25.56 21.73 25.42C19.79 25.23 18.09 23.07 17.09 21.59C15.09 18.61 13.21 14.19 13.13 10.56C13.07 7.62 17.91 6.55 20.37 7.08C22.71 7.58 22.53 10.5 22.43 12.34C22.24 15.73 18.9 17.45 15.91 18.26C5.13 21.2 3.93 8.66 1.5 1.5" stroke="#C28DD1" stroke-opacity="1.000000" stroke-width="3.000000" stroke-linecap="round"/>
</svg>
