<svg width="211.409424" height="13.874268" viewBox="0 0 211.409 13.8743" fill="none" xmlns="http://www.w3.org/2000/svg" xmlns:xlink="http://www.w3.org/1999/xlink">
	<desc>
			Created with Pixso.
	</desc>
	<defs/>
	<path id="Vector 15" d="M1.5 12.36C2.98 9.56 6.31 8.57 9.09 7.51C13.81 5.72 18.03 4.92 22.93 4.21C25.03 3.9 27.46 3.43 29.6 3.82C31.7 4.21 34.03 7.61 35.91 8.73C41.13 11.87 44.31 8.4 49.18 5.94C57.44 1.75 65.23 0.58 74.48 2.19C79.83 3.11 85.46 2.9 90.73 4.12C95.02 5.11 98.77 6.95 103.29 7.01C108.81 7.08 113.08 5.06 118.35 3.82C125.64 2.11 133 2.19 140.43 2.19C147.08 2.19 153.37 2.26 159.81 4.12C162.2 4.81 164.14 6.32 166.39 7.3C168.47 8.22 170.86 8.59 173.06 9.15C185.37 12.27 198.44 6.3 209.9 2.72" stroke="#F5A276" stroke-opacity="1.000000" stroke-width="3.000000" stroke-linecap="round"/>
</svg>
