<svg width="160" height="68" viewBox="0 0 160 68" fill="none" xmlns="http://www.w3.org/2000/svg">
<path d="M2 48.7591C16.402 50.6794 30.8272 50.6677 45.3122 51.7023C58.7432 52.6617 72.1643 52.4933 85.6086 53.0104C95.588 53.3942 105.797 54.06 115.658 52.1747C122.823 50.805 133.368 49.1143 136.37 41.2013C138.77 34.8728 133.991 30.765 129.393 27.1757C122.972 22.1629 116.062 17.7348 108.427 14.7852C85.5913 5.96213 59.6058 1.66797 35.2109 1.66797C25.4968 1.66797 10.4928 2.63115 5.99694 13.5498C4.06041 18.2527 5.55064 24.3192 8.46777 28.2294C16.2619 38.6769 29.6354 46.2714 41.2426 51.5933C60.2325 60.3001 82.7829 63.1175 103.34 64.6379C121.423 65.9752 139.546 65.7643 157.662 65.7643" stroke="#F49563" stroke-width="3" stroke-linecap="round"/>
</svg>
